<?xml version="1.0" encoding="utf-8" standalone="no"?>
<!DOCTYPE svg PUBLIC "-//W3C//DTD SVG 1.1//EN"
  "http://www.w3.org/Graphics/SVG/1.1/DTD/svg11.dtd">
<svg xmlns:xlink="http://www.w3.org/1999/xlink" width="748.110515pt" height="560.878128pt" viewBox="0 0 748.110515 560.878128" xmlns="http://www.w3.org/2000/svg" version="1.1">
 <metadata>
  <rdf:RDF xmlns:dc="http://purl.org/dc/elements/1.1/" xmlns:cc="http://creativecommons.org/ns#" xmlns:rdf="http://www.w3.org/1999/02/22-rdf-syntax-ns#">
   <cc:Work>
    <dc:type rdf:resource="http://purl.org/dc/dcmitype/StillImage"/>
    <dc:date>2022-12-15T08:28:21.699500</dc:date>
    <dc:format>image/svg+xml</dc:format>
    <dc:creator>
     <cc:Agent>
      <dc:title>Matplotlib v3.6.2, https://matplotlib.org/</dc:title>
     </cc:Agent>
    </dc:creator>
   </cc:Work>
  </rdf:RDF>
 </metadata>
 <defs>
  <style type="text/css">*{stroke-linejoin: round; stroke-linecap: butt}</style>
 </defs>
 <g id="figure_1">
  <g id="patch_1">
   <path d="M 0 560.878128 
L 748.110515 560.878128 
L 748.110515 0 
L 0 0 
L 0 560.878128 
z
" style="fill: none"/>
  </g>
  <g id="axes_1">
   <g id="patch_2">
    <path d="M 57.475895 519.965183 
L 727.075895 519.965183 
L 727.075895 21.005183 
L 57.475895 21.005183 
L 57.475895 519.965183 
z
" style="fill: none"/>
   </g>
   <g id="matplotlib.axis_1">
    <g id="xtick_1">
     <g id="line2d_1">
      <path d="M 57.475895 519.965183 
L 57.475895 21.005183 
" clip-path="url(#p285e1ddec9)" style="fill: none; stroke: #b0b0b0; stroke-width: 0.5; stroke-linecap: square"/>
     </g>
     <g id="line2d_2">
      <defs>
       <path id="m70a6cfc059" d="M 0 0 
L 0 -6 
" style="stroke: #000000"/>
      </defs>
      <g>
       <use xlink:href="#m70a6cfc059" x="57.475895" y="519.965183" style="stroke: #000000"/>
      </g>
     </g>
     <g id="line2d_3">
      <defs>
       <path id="m484687272f" d="M 0 0 
L 0 6 
" style="stroke: #000000"/>
      </defs>
      <g>
       <use xlink:href="#m484687272f" x="57.475895" y="21.005183" style="stroke: #000000"/>
      </g>
     </g>
     <g id="text_1">
      <!-- $\mathdefault{0}$ -->
      <g transform="translate(53.988971 533.444712) scale(0.14 -0.14)">
       <defs>
        <path id="URWPalladioL-Roma-30" d="M 1683 4416 
C 691 4416 186 3628 186 2076 
C 186 1326 320 679 544 365 
C 768 51 1126 -128 1523 -128 
C 2490 -128 2976 704 2976 2345 
C 2976 3749 2560 4416 1683 4416 
z
M 1568 4191 
C 2189 4191 2438 3563 2438 2025 
C 2438 660 2195 96 1606 96 
C 986 96 723 743 723 2307 
C 723 3660 960 4191 1568 4191 
z
" transform="scale(0.015625)"/>
       </defs>
       <use xlink:href="#URWPalladioL-Roma-30" transform="scale(0.996264)"/>
      </g>
     </g>
    </g>
    <g id="xtick_2">
     <g id="line2d_4">
      <path d="M 191.395895 519.965183 
L 191.395895 21.005183 
" clip-path="url(#p285e1ddec9)" style="fill: none; stroke: #b0b0b0; stroke-width: 0.5; stroke-linecap: square"/>
     </g>
     <g id="line2d_5">
      <g>
       <use xlink:href="#m70a6cfc059" x="191.395895" y="519.965183" style="stroke: #000000"/>
      </g>
     </g>
     <g id="line2d_6">
      <g>
       <use xlink:href="#m484687272f" x="191.395895" y="21.005183" style="stroke: #000000"/>
      </g>
     </g>
     <g id="text_2">
      <!-- $\mathdefault{10000}$ -->
      <g transform="translate(173.961275 533.444712) scale(0.14 -0.14)">
       <defs>
        <path id="URWPalladioL-Roma-31" d="M 429 3571 
L 493 3571 
L 1318 3942 
C 1325 3949 1331 3949 1338 3949 
C 1376 3949 1389 3891 1389 3737 
L 1389 633 
C 1389 300 1318 230 973 211 
L 614 192 
L 614 0 
C 1600 0 1600 0 1670 0 
C 1754 0 1894 0 2112 -7 
C 2189 6 2413 6 2675 0 
L 2675 192 
L 2342 211 
C 1990 229 1926 299 1926 628 
L 1926 4383 
L 1837 4416 
C 1421 4199 966 4009 384 3807 
L 429 3571 
z
" transform="scale(0.015625)"/>
       </defs>
       <use xlink:href="#URWPalladioL-Roma-31" transform="scale(0.996264)"/>
       <use xlink:href="#URWPalladioL-Roma-30" transform="translate(49.8132 0) scale(0.996264)"/>
       <use xlink:href="#URWPalladioL-Roma-30" transform="translate(99.626401 0) scale(0.996264)"/>
       <use xlink:href="#URWPalladioL-Roma-30" transform="translate(149.439601 0) scale(0.996264)"/>
       <use xlink:href="#URWPalladioL-Roma-30" transform="translate(199.252802 0) scale(0.996264)"/>
      </g>
     </g>
    </g>
    <g id="xtick_3">
     <g id="line2d_7">
      <path d="M 325.315895 519.965183 
L 325.315895 21.005183 
" clip-path="url(#p285e1ddec9)" style="fill: none; stroke: #b0b0b0; stroke-width: 0.5; stroke-linecap: square"/>
     </g>
     <g id="line2d_8">
      <g>
       <use xlink:href="#m70a6cfc059" x="325.315895" y="519.965183" style="stroke: #000000"/>
      </g>
     </g>
     <g id="line2d_9">
      <g>
       <use xlink:href="#m484687272f" x="325.315895" y="21.005183" style="stroke: #000000"/>
      </g>
     </g>
     <g id="text_3">
      <!-- $\mathdefault{20000}$ -->
      <g transform="translate(307.881275 533.444712) scale(0.14 -0.14)">
       <defs>
        <path id="URWPalladioL-Roma-32" d="M 102 166 
L 102 0 
C 1299 0 1299 0 1530 0 
C 1760 19 1760 19 2995 0 
C 2982 134 2982 198 2982 287 
C 2982 370 2982 434 2995 574 
C 2259 542 1965 536 781 510 
L 1946 1741 
C 2566 2398 2758 2749 2758 3228 
C 2758 3961 2259 4416 1446 4416 
C 986 4416 672 4287 358 3967 
L 250 3100 
L 435 3100 
L 518 3394 
C 621 3763 851 3923 1280 3923 
C 1830 3923 2182 3578 2182 3036 
C 2182 2558 1914 2086 1190 1320 
L 102 166 
z
" transform="scale(0.015625)"/>
       </defs>
       <use xlink:href="#URWPalladioL-Roma-32" transform="scale(0.996264)"/>
       <use xlink:href="#URWPalladioL-Roma-30" transform="translate(49.8132 0) scale(0.996264)"/>
       <use xlink:href="#URWPalladioL-Roma-30" transform="translate(99.626401 0) scale(0.996264)"/>
       <use xlink:href="#URWPalladioL-Roma-30" transform="translate(149.439601 0) scale(0.996264)"/>
       <use xlink:href="#URWPalladioL-Roma-30" transform="translate(199.252802 0) scale(0.996264)"/>
      </g>
     </g>
    </g>
    <g id="xtick_4">
     <g id="line2d_10">
      <path d="M 459.235895 519.965183 
L 459.235895 21.005183 
" clip-path="url(#p285e1ddec9)" style="fill: none; stroke: #b0b0b0; stroke-width: 0.5; stroke-linecap: square"/>
     </g>
     <g id="line2d_11">
      <g>
       <use xlink:href="#m70a6cfc059" x="459.235895" y="519.965183" style="stroke: #000000"/>
      </g>
     </g>
     <g id="line2d_12">
      <g>
       <use xlink:href="#m484687272f" x="459.235895" y="21.005183" style="stroke: #000000"/>
      </g>
     </g>
     <g id="text_4">
      <!-- $\mathdefault{30000}$ -->
      <g transform="translate(441.801275 533.444712) scale(0.14 -0.14)">
       <defs>
        <path id="URWPalladioL-Roma-33" d="M 275 3196 
L 474 3196 
L 589 3553 
C 659 3770 1062 3987 1395 3987 
C 1811 3987 2150 3649 2150 3247 
C 2150 2769 1773 2368 1318 2368 
C 1267 2368 1197 2374 1114 2380 
L 1018 2387 
L 941 2047 
L 986 2008 
C 1229 2118 1350 2150 1523 2150 
C 2054 2150 2362 1808 2362 1222 
C 2362 565 1971 134 1376 134 
C 1082 134 819 231 627 411 
C 474 553 390 701 269 1048 
L 96 984 
C 230 591 282 359 320 38 
C 659 -77 941 -128 1178 -128 
C 1690 -128 2278 160 2630 591 
C 2848 855 2957 1139 2957 1441 
C 2957 1750 2829 2021 2598 2182 
C 2438 2297 2291 2348 1971 2406 
C 2483 2801 2675 3094 2675 3470 
C 2675 4038 2202 4416 1491 4416 
C 1056 4416 768 4294 461 3987 
L 275 3196 
z
" transform="scale(0.015625)"/>
       </defs>
       <use xlink:href="#URWPalladioL-Roma-33" transform="scale(0.996264)"/>
       <use xlink:href="#URWPalladioL-Roma-30" transform="translate(49.8132 0) scale(0.996264)"/>
       <use xlink:href="#URWPalladioL-Roma-30" transform="translate(99.626401 0) scale(0.996264)"/>
       <use xlink:href="#URWPalladioL-Roma-30" transform="translate(149.439601 0) scale(0.996264)"/>
       <use xlink:href="#URWPalladioL-Roma-30" transform="translate(199.252802 0) scale(0.996264)"/>
      </g>
     </g>
    </g>
    <g id="xtick_5">
     <g id="line2d_13">
      <path d="M 593.155895 519.965183 
L 593.155895 21.005183 
" clip-path="url(#p285e1ddec9)" style="fill: none; stroke: #b0b0b0; stroke-width: 0.5; stroke-linecap: square"/>
     </g>
     <g id="line2d_14">
      <g>
       <use xlink:href="#m70a6cfc059" x="593.155895" y="519.965183" style="stroke: #000000"/>
      </g>
     </g>
     <g id="line2d_15">
      <g>
       <use xlink:href="#m484687272f" x="593.155895" y="21.005183" style="stroke: #000000"/>
      </g>
     </g>
     <g id="text_5">
      <!-- $\mathdefault{40000}$ -->
      <g transform="translate(575.721275 533.444712) scale(0.14 -0.14)">
       <defs>
        <path id="URWPalladioL-Roma-34" d="M 1792 1152 
L 1792 684 
C 1792 310 1722 223 1408 210 
L 1011 192 
L 1011 0 
C 1862 0 1862 0 2016 0 
C 2170 19 2170 19 3021 0 
L 3021 192 
L 2714 210 
C 2400 229 2330 310 2330 684 
L 2330 1152 
C 2707 1152 2842 1145 3021 1127 
L 3021 1580 
C 2720 1555 2598 1555 2502 1561 
L 2483 1561 
L 2330 1561 
L 2330 2445 
C 2330 3576 2342 4122 2374 4383 
L 2298 4416 
L 1824 4243 
L 13 1299 
L 83 1152 
L 1792 1152 
z
M 1792 1561 
L 416 1561 
L 1792 3798 
L 1792 1561 
z
" transform="scale(0.015625)"/>
       </defs>
       <use xlink:href="#URWPalladioL-Roma-34" transform="scale(0.996264)"/>
       <use xlink:href="#URWPalladioL-Roma-30" transform="translate(49.8132 0) scale(0.996264)"/>
       <use xlink:href="#URWPalladioL-Roma-30" transform="translate(99.626401 0) scale(0.996264)"/>
       <use xlink:href="#URWPalladioL-Roma-30" transform="translate(149.439601 0) scale(0.996264)"/>
       <use xlink:href="#URWPalladioL-Roma-30" transform="translate(199.252802 0) scale(0.996264)"/>
      </g>
     </g>
    </g>
    <g id="xtick_6">
     <g id="line2d_16">
      <path d="M 727.075895 519.965183 
L 727.075895 21.005183 
" clip-path="url(#p285e1ddec9)" style="fill: none; stroke: #b0b0b0; stroke-width: 0.5; stroke-linecap: square"/>
     </g>
     <g id="line2d_17">
      <g>
       <use xlink:href="#m70a6cfc059" x="727.075895" y="519.965183" style="stroke: #000000"/>
      </g>
     </g>
     <g id="line2d_18">
      <g>
       <use xlink:href="#m484687272f" x="727.075895" y="21.005183" style="stroke: #000000"/>
      </g>
     </g>
     <g id="text_6">
      <!-- $\mathdefault{50000}$ -->
      <g transform="translate(709.641275 533.444712) scale(0.14 -0.14)">
       <defs>
        <path id="URWPalladioL-Roma-35" d="M 813 3891 
C 1638 3865 1997 3859 2765 3859 
L 2797 3891 
C 2784 4006 2784 4057 2784 4140 
C 2784 4230 2784 4281 2797 4396 
L 2765 4428 
C 2285 4403 1997 4396 1651 4396 
C 1299 4396 1018 4403 538 4428 
L 506 4396 
C 512 4006 518 3724 518 3520 
C 518 2976 499 2360 480 2076 
L 608 2038 
C 909 2341 1082 2432 1395 2432 
C 2010 2432 2394 1992 2394 1295 
C 2394 579 1984 160 1286 160 
C 941 160 621 276 531 443 
L 237 973 
L 83 882 
C 230 514 307 308 397 25 
C 576 -71 832 -128 1107 -128 
C 1536 -128 1990 57 2342 366 
C 2733 715 2938 1153 2938 1631 
C 2938 2360 2419 2873 1690 2873 
C 1382 2873 1152 2790 755 2553 
L 813 3891 
z
" transform="scale(0.015625)"/>
       </defs>
       <use xlink:href="#URWPalladioL-Roma-35" transform="scale(0.996264)"/>
       <use xlink:href="#URWPalladioL-Roma-30" transform="translate(49.8132 0) scale(0.996264)"/>
       <use xlink:href="#URWPalladioL-Roma-30" transform="translate(99.626401 0) scale(0.996264)"/>
       <use xlink:href="#URWPalladioL-Roma-30" transform="translate(149.439601 0) scale(0.996264)"/>
       <use xlink:href="#URWPalladioL-Roma-30" transform="translate(199.252802 0) scale(0.996264)"/>
      </g>
     </g>
    </g>
    <g id="xtick_7">
     <g id="line2d_19">
      <defs>
       <path id="m0d77e5faf8" d="M 0 0 
L 0 -3 
" style="stroke: #000000; stroke-width: 0.5"/>
      </defs>
      <g>
       <use xlink:href="#m0d77e5faf8" x="84.259895" y="519.965183" style="stroke: #000000; stroke-width: 0.5"/>
      </g>
     </g>
     <g id="line2d_20">
      <defs>
       <path id="m76685927ab" d="M 0 0 
L 0 3 
" style="stroke: #000000; stroke-width: 0.5"/>
      </defs>
      <g>
       <use xlink:href="#m76685927ab" x="84.259895" y="21.005183" style="stroke: #000000; stroke-width: 0.5"/>
      </g>
     </g>
    </g>
    <g id="xtick_8">
     <g id="line2d_21">
      <g>
       <use xlink:href="#m0d77e5faf8" x="111.043895" y="519.965183" style="stroke: #000000; stroke-width: 0.5"/>
      </g>
     </g>
     <g id="line2d_22">
      <g>
       <use xlink:href="#m76685927ab" x="111.043895" y="21.005183" style="stroke: #000000; stroke-width: 0.5"/>
      </g>
     </g>
    </g>
    <g id="xtick_9">
     <g id="line2d_23">
      <g>
       <use xlink:href="#m0d77e5faf8" x="137.827895" y="519.965183" style="stroke: #000000; stroke-width: 0.5"/>
      </g>
     </g>
     <g id="line2d_24">
      <g>
       <use xlink:href="#m76685927ab" x="137.827895" y="21.005183" style="stroke: #000000; stroke-width: 0.5"/>
      </g>
     </g>
    </g>
    <g id="xtick_10">
     <g id="line2d_25">
      <g>
       <use xlink:href="#m0d77e5faf8" x="164.611895" y="519.965183" style="stroke: #000000; stroke-width: 0.5"/>
      </g>
     </g>
     <g id="line2d_26">
      <g>
       <use xlink:href="#m76685927ab" x="164.611895" y="21.005183" style="stroke: #000000; stroke-width: 0.5"/>
      </g>
     </g>
    </g>
    <g id="xtick_11">
     <g id="line2d_27">
      <g>
       <use xlink:href="#m0d77e5faf8" x="218.179895" y="519.965183" style="stroke: #000000; stroke-width: 0.5"/>
      </g>
     </g>
     <g id="line2d_28">
      <g>
       <use xlink:href="#m76685927ab" x="218.179895" y="21.005183" style="stroke: #000000; stroke-width: 0.5"/>
      </g>
     </g>
    </g>
    <g id="xtick_12">
     <g id="line2d_29">
      <g>
       <use xlink:href="#m0d77e5faf8" x="244.963895" y="519.965183" style="stroke: #000000; stroke-width: 0.5"/>
      </g>
     </g>
     <g id="line2d_30">
      <g>
       <use xlink:href="#m76685927ab" x="244.963895" y="21.005183" style="stroke: #000000; stroke-width: 0.5"/>
      </g>
     </g>
    </g>
    <g id="xtick_13">
     <g id="line2d_31">
      <g>
       <use xlink:href="#m0d77e5faf8" x="271.747895" y="519.965183" style="stroke: #000000; stroke-width: 0.5"/>
      </g>
     </g>
     <g id="line2d_32">
      <g>
       <use xlink:href="#m76685927ab" x="271.747895" y="21.005183" style="stroke: #000000; stroke-width: 0.5"/>
      </g>
     </g>
    </g>
    <g id="xtick_14">
     <g id="line2d_33">
      <g>
       <use xlink:href="#m0d77e5faf8" x="298.531895" y="519.965183" style="stroke: #000000; stroke-width: 0.5"/>
      </g>
     </g>
     <g id="line2d_34">
      <g>
       <use xlink:href="#m76685927ab" x="298.531895" y="21.005183" style="stroke: #000000; stroke-width: 0.5"/>
      </g>
     </g>
    </g>
    <g id="xtick_15">
     <g id="line2d_35">
      <g>
       <use xlink:href="#m0d77e5faf8" x="352.099895" y="519.965183" style="stroke: #000000; stroke-width: 0.5"/>
      </g>
     </g>
     <g id="line2d_36">
      <g>
       <use xlink:href="#m76685927ab" x="352.099895" y="21.005183" style="stroke: #000000; stroke-width: 0.5"/>
      </g>
     </g>
    </g>
    <g id="xtick_16">
     <g id="line2d_37">
      <g>
       <use xlink:href="#m0d77e5faf8" x="378.883895" y="519.965183" style="stroke: #000000; stroke-width: 0.5"/>
      </g>
     </g>
     <g id="line2d_38">
      <g>
       <use xlink:href="#m76685927ab" x="378.883895" y="21.005183" style="stroke: #000000; stroke-width: 0.5"/>
      </g>
     </g>
    </g>
    <g id="xtick_17">
     <g id="line2d_39">
      <g>
       <use xlink:href="#m0d77e5faf8" x="405.667895" y="519.965183" style="stroke: #000000; stroke-width: 0.5"/>
      </g>
     </g>
     <g id="line2d_40">
      <g>
       <use xlink:href="#m76685927ab" x="405.667895" y="21.005183" style="stroke: #000000; stroke-width: 0.5"/>
      </g>
     </g>
    </g>
    <g id="xtick_18">
     <g id="line2d_41">
      <g>
       <use xlink:href="#m0d77e5faf8" x="432.451895" y="519.965183" style="stroke: #000000; stroke-width: 0.5"/>
      </g>
     </g>
     <g id="line2d_42">
      <g>
       <use xlink:href="#m76685927ab" x="432.451895" y="21.005183" style="stroke: #000000; stroke-width: 0.5"/>
      </g>
     </g>
    </g>
    <g id="xtick_19">
     <g id="line2d_43">
      <g>
       <use xlink:href="#m0d77e5faf8" x="486.019895" y="519.965183" style="stroke: #000000; stroke-width: 0.5"/>
      </g>
     </g>
     <g id="line2d_44">
      <g>
       <use xlink:href="#m76685927ab" x="486.019895" y="21.005183" style="stroke: #000000; stroke-width: 0.5"/>
      </g>
     </g>
    </g>
    <g id="xtick_20">
     <g id="line2d_45">
      <g>
       <use xlink:href="#m0d77e5faf8" x="512.803895" y="519.965183" style="stroke: #000000; stroke-width: 0.5"/>
      </g>
     </g>
     <g id="line2d_46">
      <g>
       <use xlink:href="#m76685927ab" x="512.803895" y="21.005183" style="stroke: #000000; stroke-width: 0.5"/>
      </g>
     </g>
    </g>
    <g id="xtick_21">
     <g id="line2d_47">
      <g>
       <use xlink:href="#m0d77e5faf8" x="539.587895" y="519.965183" style="stroke: #000000; stroke-width: 0.5"/>
      </g>
     </g>
     <g id="line2d_48">
      <g>
       <use xlink:href="#m76685927ab" x="539.587895" y="21.005183" style="stroke: #000000; stroke-width: 0.5"/>
      </g>
     </g>
    </g>
    <g id="xtick_22">
     <g id="line2d_49">
      <g>
       <use xlink:href="#m0d77e5faf8" x="566.371895" y="519.965183" style="stroke: #000000; stroke-width: 0.5"/>
      </g>
     </g>
     <g id="line2d_50">
      <g>
       <use xlink:href="#m76685927ab" x="566.371895" y="21.005183" style="stroke: #000000; stroke-width: 0.5"/>
      </g>
     </g>
    </g>
    <g id="xtick_23">
     <g id="line2d_51">
      <g>
       <use xlink:href="#m0d77e5faf8" x="619.939895" y="519.965183" style="stroke: #000000; stroke-width: 0.5"/>
      </g>
     </g>
     <g id="line2d_52">
      <g>
       <use xlink:href="#m76685927ab" x="619.939895" y="21.005183" style="stroke: #000000; stroke-width: 0.5"/>
      </g>
     </g>
    </g>
    <g id="xtick_24">
     <g id="line2d_53">
      <g>
       <use xlink:href="#m0d77e5faf8" x="646.723895" y="519.965183" style="stroke: #000000; stroke-width: 0.5"/>
      </g>
     </g>
     <g id="line2d_54">
      <g>
       <use xlink:href="#m76685927ab" x="646.723895" y="21.005183" style="stroke: #000000; stroke-width: 0.5"/>
      </g>
     </g>
    </g>
    <g id="xtick_25">
     <g id="line2d_55">
      <g>
       <use xlink:href="#m0d77e5faf8" x="673.507895" y="519.965183" style="stroke: #000000; stroke-width: 0.5"/>
      </g>
     </g>
     <g id="line2d_56">
      <g>
       <use xlink:href="#m76685927ab" x="673.507895" y="21.005183" style="stroke: #000000; stroke-width: 0.5"/>
      </g>
     </g>
    </g>
    <g id="xtick_26">
     <g id="line2d_57">
      <g>
       <use xlink:href="#m0d77e5faf8" x="700.291895" y="519.965183" style="stroke: #000000; stroke-width: 0.5"/>
      </g>
     </g>
     <g id="line2d_58">
      <g>
       <use xlink:href="#m76685927ab" x="700.291895" y="21.005183" style="stroke: #000000; stroke-width: 0.5"/>
      </g>
     </g>
    </g>
    <g id="text_7">
     <!-- ANN training epoch -->
     <g transform="translate(319.629169 552.783067) scale(0.16 -0.16)">
      <defs>
       <path id="URWPalladioL-Roma-41" d="M 2611 4480 
L 2406 4480 
C 2291 4205 2195 3969 2157 3874 
L 1818 3103 
L 678 523 
C 602 338 474 223 333 210 
L 96 191 
L 96 0 
C 691 0 691 0 794 0 
C 877 19 877 19 1568 0 
L 1568 191 
L 1331 210 
C 1107 229 1024 273 1024 375 
C 1024 457 1114 730 1248 1047 
L 1427 1472 
L 3270 1472 
L 3565 742 
C 3674 476 3699 394 3699 337 
C 3699 267 3597 223 3437 210 
L 3136 191 
L 3136 0 
C 3923 0 3923 0 4026 0 
C 4147 19 4147 19 4838 0 
L 4838 191 
L 4621 210 
C 4454 235 4384 343 4160 857 
L 2611 4480 
z
M 1536 1728 
L 2349 3630 
L 3155 1728 
L 1536 1728 
z
" transform="scale(0.015625)"/>
       <path id="URWPalladioL-Roma-4e" d="M 877 4396 
C 518 4403 461 4403 109 4416 
L 109 4223 
L 390 4204 
C 685 4185 717 4128 717 3633 
L 717 782 
C 717 287 685 230 390 211 
L 109 192 
L 109 0 
C 742 0 742 0 851 0 
C 947 19 947 19 1619 0 
L 1619 192 
L 1338 211 
C 1043 230 1011 287 1011 782 
L 1011 3722 
L 4038 -7 
L 4614 -109 
C 4614 -84 4614 -77 4608 -33 
C 4602 38 4595 89 4595 128 
L 4595 3633 
C 4595 4128 4627 4185 4922 4204 
L 5203 4223 
L 5203 4416 
C 4531 4396 4531 4396 4435 4396 
C 4326 4396 4326 4396 3693 4416 
L 3693 4223 
L 3974 4204 
C 4269 4185 4301 4128 4301 3633 
L 4301 642 
L 1222 4416 
L 877 4396 
z
" transform="scale(0.015625)"/>
       <path id="URWPalladioL-Roma-74" d="M 627 2457 
L 627 614 
C 627 140 838 -64 1331 -64 
C 1478 -64 1632 -32 1670 12 
L 1978 352 
L 1894 460 
C 1734 371 1638 339 1517 339 
C 1267 339 1165 467 1165 780 
L 1165 2457 
L 1984 2457 
L 2042 2803 
L 1165 2764 
L 1165 3008 
C 1165 3277 1184 3507 1235 3917 
L 1158 3987 
C 1005 3891 813 3808 614 3744 
C 634 3552 640 3430 640 3238 
L 640 2790 
L 141 2566 
L 141 2432 
L 627 2457 
z
" transform="scale(0.015625)"/>
       <path id="URWPalladioL-Roma-72" d="M 147 2579 
L 384 2579 
C 640 2579 666 2534 666 2112 
L 666 672 
C 666 268 646 224 429 211 
L 134 192 
L 134 0 
C 595 -7 762 0 922 0 
C 1050 19 1050 19 1837 0 
L 1837 192 
L 1504 211 
C 1216 230 1203 249 1203 669 
L 1203 1763 
C 1203 2145 1459 2463 1773 2463 
C 1965 2463 2099 2374 2202 2171 
L 2336 2171 
L 2394 2937 
C 2323 2982 2208 3008 2093 3008 
C 1901 3008 1696 2905 1562 2745 
L 1203 2324 
L 1203 2982 
L 1146 3008 
C 819 2873 486 2783 147 2745 
L 147 2579 
z
" transform="scale(0.015625)"/>
       <path id="URWPalladioL-Roma-61" d="M 2074 544 
L 2042 0 
C 2458 0 2458 0 2541 0 
C 2573 19 2733 12 3014 0 
L 3014 192 
L 2765 204 
C 2611 211 2586 262 2586 576 
L 2586 1751 
C 2586 2688 2317 3027 1574 3027 
C 1299 3027 1043 2956 800 2809 
L 461 2604 
L 461 2187 
L 627 2142 
L 710 2341 
C 845 2642 909 2688 1203 2688 
C 1805 2688 2054 2450 2074 1866 
L 1440 1751 
C 570 1590 205 1289 205 730 
C 205 224 506 -64 1011 -64 
C 1126 -64 1235 -45 1280 -13 
L 2074 544 
z
M 2074 806 
C 1888 544 1485 300 1235 300 
C 979 300 755 537 755 812 
C 755 1049 883 1273 1075 1395 
C 1235 1491 1587 1580 2074 1651 
L 2074 806 
z
" transform="scale(0.015625)"/>
       <path id="URWPalladioL-Roma-69" d="M 1203 2982 
L 1146 3008 
C 819 2873 486 2784 147 2746 
L 147 2568 
L 384 2568 
C 640 2568 666 2523 666 2103 
L 666 669 
C 666 268 646 223 429 211 
L 134 192 
L 134 0 
C 774 0 774 0 934 0 
C 1094 19 1094 19 1734 0 
L 1734 192 
L 1440 211 
C 1222 224 1203 268 1203 671 
L 1203 2982 
z
M 909 4416 
C 717 4416 550 4249 550 4057 
C 550 3871 717 3705 902 3705 
C 1088 3705 1261 3871 1261 4057 
C 1261 4236 1088 4416 909 4416 
z
" transform="scale(0.015625)"/>
       <path id="URWPalladioL-Roma-6e" d="M 2624 0 
C 3014 0 3021 0 3130 0 
C 3219 19 3219 19 3661 0 
L 3661 192 
L 3398 211 
C 3181 223 3162 262 3162 670 
L 3162 1902 
C 3162 2649 2810 3014 2093 3014 
C 1856 3014 1722 2969 1587 2854 
L 1101 2432 
L 1101 2988 
L 1043 3008 
C 717 2873 384 2784 45 2746 
L 45 2568 
L 282 2568 
C 538 2568 563 2523 563 2103 
L 563 669 
C 563 268 544 223 326 211 
L 38 192 
L 38 0 
C 474 -7 646 0 832 0 
C 1018 19 1190 12 1626 0 
L 1626 192 
L 1338 211 
C 1120 223 1101 268 1101 670 
L 1101 2023 
C 1101 2311 1523 2624 1914 2624 
C 2342 2624 2624 2304 2624 1813 
L 2624 0 
z
" transform="scale(0.015625)"/>
       <path id="URWPalladioL-Roma-67" d="M 3322 2452 
L 3482 2713 
L 3456 2790 
L 2547 2764 
C 2310 2956 2080 3033 1766 3033 
C 1485 3033 1158 2944 896 2790 
C 538 2586 352 2274 352 1885 
C 352 1413 646 1087 1120 1036 
L 614 638 
C 550 540 518 455 518 358 
C 518 179 634 76 941 -13 
L 384 -315 
C 294 -367 205 -604 205 -804 
C 205 -1388 774 -1792 1587 -1792 
C 2554 -1792 3315 -1183 3315 -399 
C 3315 64 3008 384 2560 384 
L 1536 384 
C 1203 384 1050 462 1050 638 
C 1050 723 1101 795 1267 939 
C 1306 972 1318 985 1344 1011 
C 1408 1004 1446 998 1498 998 
C 1773 998 2112 1119 2374 1305 
C 2662 1515 2803 1770 2803 2108 
C 2803 2235 2784 2318 2733 2452 
L 3322 2452 
z
M 1536 2816 
C 1971 2816 2266 2458 2266 1917 
C 2266 1502 1997 1216 1606 1216 
C 1178 1216 890 1547 890 2038 
C 890 2529 1126 2816 1536 2816 
z
M 1837 -64 
C 2560 -64 2810 -212 2810 -630 
C 2810 -1183 2304 -1594 1632 -1594 
C 1075 -1594 691 -1266 691 -791 
C 691 -502 858 -238 1114 -129 
C 1216 -77 1395 -64 1837 -64 
z
" transform="scale(0.015625)"/>
       <path id="URWPalladioL-Roma-65" d="M 2797 447 
L 2714 511 
C 2304 268 2157 211 1882 211 
C 1466 211 1120 396 941 710 
C 819 921 774 1100 762 1472 
L 1696 1472 
C 2138 1472 2413 1491 2854 1561 
C 2861 1651 2867 1708 2867 1786 
C 2867 2526 2394 3008 1677 3008 
C 1440 3008 1165 2924 902 2771 
C 378 2468 166 2069 166 1401 
C 166 998 262 652 435 409 
C 691 70 1120 -128 1600 -128 
C 1837 -128 2074 -77 2336 38 
C 2509 108 2643 192 2669 230 
L 2797 447 
z
M 2298 1708 
C 1965 1696 1811 1689 1581 1689 
C 1286 1689 1120 1696 774 1728 
C 774 2030 800 2172 883 2339 
C 1018 2623 1293 2796 1600 2796 
C 1811 2796 1978 2713 2093 2539 
C 2234 2326 2278 2140 2298 1708 
z
" transform="scale(0.015625)"/>
       <path id="URWPalladioL-Roma-70" d="M 64 2566 
L 301 2566 
C 557 2566 582 2521 582 2100 
L 582 -1118 
C 582 -1523 563 -1568 346 -1581 
L 51 -1600 
L 51 -1792 
C 691 -1773 691 -1773 851 -1773 
C 1011 -1773 1011 -1773 1651 -1792 
L 1651 -1600 
L 1357 -1581 
C 1139 -1568 1120 -1523 1120 -1118 
L 1120 96 
C 1312 -20 1517 -64 1805 -64 
C 1990 -64 2157 -26 2259 38 
L 2989 511 
C 3245 677 3546 1334 3546 1743 
C 3546 2451 2957 3008 2214 3008 
C 1978 3008 1747 2943 1645 2847 
L 1120 2368 
L 1120 2982 
L 1062 3008 
C 736 2873 403 2783 64 2745 
L 64 2566 
z
M 1120 1966 
C 1120 2055 1152 2126 1235 2234 
C 1421 2470 1683 2591 2003 2591 
C 2605 2591 2989 2170 2989 1507 
C 2989 792 2560 262 1984 262 
C 1632 262 1370 377 1120 639 
L 1120 1966 
z
" transform="scale(0.015625)"/>
       <path id="URWPalladioL-Roma-6f" d="M 1786 3008 
C 851 3008 205 2347 205 1391 
C 205 487 774 -128 1600 -128 
C 2586 -128 3290 557 3290 1520 
C 3290 2386 2662 3008 1786 3008 
z
M 1670 2796 
C 2259 2796 2694 2155 2694 1282 
C 2694 545 2368 83 1850 83 
C 1222 83 800 699 800 1609 
C 800 2379 1107 2796 1670 2796 
z
" transform="scale(0.015625)"/>
       <path id="URWPalladioL-Roma-63" d="M 2554 1995 
C 2554 2290 2586 2553 2643 2783 
C 2387 2937 2163 3008 1901 3008 
C 1594 3008 1235 2886 851 2643 
C 403 2360 166 1911 166 1347 
C 166 480 774 -128 1632 -128 
C 1965 -128 2445 -7 2509 89 
L 2643 294 
L 2579 390 
C 2342 262 2138 204 1907 204 
C 1197 204 730 756 730 1603 
C 730 2290 1050 2675 1626 2675 
C 1907 2675 2214 2547 2330 2386 
L 2374 1995 
L 2554 1995 
z
" transform="scale(0.015625)"/>
       <path id="URWPalladioL-Roma-68" d="M 45 4249 
L 403 4249 
C 518 4249 563 4179 563 3987 
L 563 672 
C 563 268 544 224 326 211 
L 38 192 
L 38 0 
C 474 -7 646 0 832 0 
C 1018 19 1190 12 1626 0 
L 1626 192 
L 1338 211 
C 1120 223 1101 268 1101 670 
L 1101 2023 
C 1101 2311 1523 2624 1914 2624 
C 2342 2624 2624 2304 2624 1813 
L 2624 0 
C 3014 0 3021 0 3130 0 
C 3219 19 3219 19 3661 0 
L 3661 192 
L 3398 211 
C 3181 223 3162 262 3162 670 
L 3162 1902 
C 3162 2649 2810 3014 2093 3014 
C 1856 3014 1722 2969 1587 2854 
L 1101 2432 
L 1101 4608 
L 1043 4659 
C 762 4550 550 4499 45 4422 
L 45 4249 
z
" transform="scale(0.015625)"/>
      </defs>
      <use xlink:href="#URWPalladioL-Roma-41" transform="scale(0.996264)"/>
      <use xlink:href="#URWPalladioL-Roma-4e" transform="translate(77.50837 0) scale(0.996264)"/>
      <use xlink:href="#URWPalladioL-Roma-4e" transform="translate(160.297277 0) scale(0.996264)"/>
      <use xlink:href="#URWPalladioL-Roma-74" transform="translate(267.992784 0) scale(0.996264)"/>
      <use xlink:href="#URWPalladioL-Roma-72" transform="translate(300.469872 0) scale(0.996264)"/>
      <use xlink:href="#URWPalladioL-Roma-61" transform="translate(339.821768 0) scale(0.996264)"/>
      <use xlink:href="#URWPalladioL-Roma-69" transform="translate(389.634969 0) scale(0.996264)"/>
      <use xlink:href="#URWPalladioL-Roma-6e" transform="translate(418.62533 0) scale(0.996264)"/>
      <use xlink:href="#URWPalladioL-Roma-69" transform="translate(476.607391 0) scale(0.996264)"/>
      <use xlink:href="#URWPalladioL-Roma-6e" transform="translate(505.597752 0) scale(0.996264)"/>
      <use xlink:href="#URWPalladioL-Roma-67" transform="translate(563.579813 0) scale(0.996264)"/>
      <use xlink:href="#URWPalladioL-Roma-65" transform="translate(643.87809 0) scale(0.996264)"/>
      <use xlink:href="#URWPalladioL-Roma-70" transform="translate(691.598385 0) scale(0.996264)"/>
      <use xlink:href="#URWPalladioL-Roma-6f" transform="translate(751.472779 0) scale(0.996264)"/>
      <use xlink:href="#URWPalladioL-Roma-63" transform="translate(805.868359 0) scale(0.996264)"/>
      <use xlink:href="#URWPalladioL-Roma-68" transform="translate(850.101928 0) scale(0.996264)"/>
     </g>
    </g>
   </g>
   <g id="matplotlib.axis_2">
    <g id="ytick_1">
     <g id="line2d_59">
      <path d="M 57.475895 519.965183 
L 727.075895 519.965183 
" clip-path="url(#p285e1ddec9)" style="fill: none; stroke: #b0b0b0; stroke-width: 0.5; stroke-linecap: square"/>
     </g>
     <g id="line2d_60">
      <defs>
       <path id="m3c37b387ca" d="M 0 0 
L 6 0 
" style="stroke: #000000"/>
      </defs>
      <g>
       <use xlink:href="#m3c37b387ca" x="57.475895" y="519.965183" style="stroke: #000000"/>
      </g>
     </g>
     <g id="line2d_61">
      <defs>
       <path id="ma36d5772fd" d="M 0 0 
L -6 0 
" style="stroke: #000000"/>
      </defs>
      <g>
       <use xlink:href="#ma36d5772fd" x="727.075895" y="519.965183" style="stroke: #000000"/>
      </g>
     </g>
     <g id="text_8">
      <!-- $\mathdefault{−5.0}$ -->
      <g transform="translate(25.069432 524.954947) scale(0.14 -0.14)">
       <defs>
        <path id="CMSY10-0" d="M 4218 1472 
C 4326 1472 4442 1472 4442 1600 
C 4442 1728 4326 1728 4218 1728 
L 755 1728 
C 646 1728 531 1728 531 1600 
C 531 1472 646 1472 755 1472 
L 4218 1472 
z
" transform="scale(0.015625)"/>
        <path id="URWPalladioL-Roma-2e" d="M 794 678 
C 602 678 429 499 429 307 
C 429 115 602 -64 787 -64 
C 992 -64 1171 108 1171 307 
C 1171 499 992 678 794 678 
z
" transform="scale(0.015625)"/>
       </defs>
       <use xlink:href="#CMSY10-0" transform="scale(1.038107)"/>
       <use xlink:href="#URWPalladioL-Roma-35" transform="translate(81.941696 0) scale(0.996264)"/>
       <use xlink:href="#URWPalladioL-Roma-2e" transform="translate(131.754897 0) scale(0.996264)"/>
       <use xlink:href="#URWPalladioL-Roma-30" transform="translate(156.661497 0) scale(0.996264)"/>
      </g>
     </g>
    </g>
    <g id="ytick_2">
     <g id="line2d_62">
      <path d="M 57.475895 420.173183 
L 727.075895 420.173183 
" clip-path="url(#p285e1ddec9)" style="fill: none; stroke: #b0b0b0; stroke-width: 0.5; stroke-linecap: square"/>
     </g>
     <g id="line2d_63">
      <g>
       <use xlink:href="#m3c37b387ca" x="57.475895" y="420.173183" style="stroke: #000000"/>
      </g>
     </g>
     <g id="line2d_64">
      <g>
       <use xlink:href="#ma36d5772fd" x="727.075895" y="420.173183" style="stroke: #000000"/>
      </g>
     </g>
     <g id="text_9">
      <!-- $\mathdefault{−4.5}$ -->
      <g transform="translate(25.069432 425.162947) scale(0.14 -0.14)">
       <use xlink:href="#CMSY10-0" transform="scale(1.038107)"/>
       <use xlink:href="#URWPalladioL-Roma-34" transform="translate(81.941696 0) scale(0.996264)"/>
       <use xlink:href="#URWPalladioL-Roma-2e" transform="translate(131.754897 0) scale(0.996264)"/>
       <use xlink:href="#URWPalladioL-Roma-35" transform="translate(156.661497 0) scale(0.996264)"/>
      </g>
     </g>
    </g>
    <g id="ytick_3">
     <g id="line2d_65">
      <path d="M 57.475895 320.381183 
L 727.075895 320.381183 
" clip-path="url(#p285e1ddec9)" style="fill: none; stroke: #b0b0b0; stroke-width: 0.5; stroke-linecap: square"/>
     </g>
     <g id="line2d_66">
      <g>
       <use xlink:href="#m3c37b387ca" x="57.475895" y="320.381183" style="stroke: #000000"/>
      </g>
     </g>
     <g id="line2d_67">
      <g>
       <use xlink:href="#ma36d5772fd" x="727.075895" y="320.381183" style="stroke: #000000"/>
      </g>
     </g>
     <g id="text_10">
      <!-- $\mathdefault{−4.0}$ -->
      <g transform="translate(25.069432 325.370947) scale(0.14 -0.14)">
       <use xlink:href="#CMSY10-0" transform="scale(1.038107)"/>
       <use xlink:href="#URWPalladioL-Roma-34" transform="translate(81.941696 0) scale(0.996264)"/>
       <use xlink:href="#URWPalladioL-Roma-2e" transform="translate(131.754897 0) scale(0.996264)"/>
       <use xlink:href="#URWPalladioL-Roma-30" transform="translate(156.661497 0) scale(0.996264)"/>
      </g>
     </g>
    </g>
    <g id="ytick_4">
     <g id="line2d_68">
      <path d="M 57.475895 220.589183 
L 727.075895 220.589183 
" clip-path="url(#p285e1ddec9)" style="fill: none; stroke: #b0b0b0; stroke-width: 0.5; stroke-linecap: square"/>
     </g>
     <g id="line2d_69">
      <g>
       <use xlink:href="#m3c37b387ca" x="57.475895" y="220.589183" style="stroke: #000000"/>
      </g>
     </g>
     <g id="line2d_70">
      <g>
       <use xlink:href="#ma36d5772fd" x="727.075895" y="220.589183" style="stroke: #000000"/>
      </g>
     </g>
     <g id="text_11">
      <!-- $\mathdefault{−3.5}$ -->
      <g transform="translate(25.069432 225.578947) scale(0.14 -0.14)">
       <use xlink:href="#CMSY10-0" transform="scale(1.038107)"/>
       <use xlink:href="#URWPalladioL-Roma-33" transform="translate(81.941696 0) scale(0.996264)"/>
       <use xlink:href="#URWPalladioL-Roma-2e" transform="translate(131.754897 0) scale(0.996264)"/>
       <use xlink:href="#URWPalladioL-Roma-35" transform="translate(156.661497 0) scale(0.996264)"/>
      </g>
     </g>
    </g>
    <g id="ytick_5">
     <g id="line2d_71">
      <path d="M 57.475895 120.797183 
L 727.075895 120.797183 
" clip-path="url(#p285e1ddec9)" style="fill: none; stroke: #b0b0b0; stroke-width: 0.5; stroke-linecap: square"/>
     </g>
     <g id="line2d_72">
      <g>
       <use xlink:href="#m3c37b387ca" x="57.475895" y="120.797183" style="stroke: #000000"/>
      </g>
     </g>
     <g id="line2d_73">
      <g>
       <use xlink:href="#ma36d5772fd" x="727.075895" y="120.797183" style="stroke: #000000"/>
      </g>
     </g>
     <g id="text_12">
      <!-- $\mathdefault{−3.0}$ -->
      <g transform="translate(25.069432 125.786947) scale(0.14 -0.14)">
       <use xlink:href="#CMSY10-0" transform="scale(1.038107)"/>
       <use xlink:href="#URWPalladioL-Roma-33" transform="translate(81.941696 0) scale(0.996264)"/>
       <use xlink:href="#URWPalladioL-Roma-2e" transform="translate(131.754897 0) scale(0.996264)"/>
       <use xlink:href="#URWPalladioL-Roma-30" transform="translate(156.661497 0) scale(0.996264)"/>
      </g>
     </g>
    </g>
    <g id="ytick_6">
     <g id="line2d_74">
      <path d="M 57.475895 21.005183 
L 727.075895 21.005183 
" clip-path="url(#p285e1ddec9)" style="fill: none; stroke: #b0b0b0; stroke-width: 0.5; stroke-linecap: square"/>
     </g>
     <g id="line2d_75">
      <g>
       <use xlink:href="#m3c37b387ca" x="57.475895" y="21.005183" style="stroke: #000000"/>
      </g>
     </g>
     <g id="line2d_76">
      <g>
       <use xlink:href="#ma36d5772fd" x="727.075895" y="21.005183" style="stroke: #000000"/>
      </g>
     </g>
     <g id="text_13">
      <!-- $\mathdefault{−2.5}$ -->
      <g transform="translate(25.069432 25.994947) scale(0.14 -0.14)">
       <use xlink:href="#CMSY10-0" transform="scale(1.038107)"/>
       <use xlink:href="#URWPalladioL-Roma-32" transform="translate(81.941696 0) scale(0.996264)"/>
       <use xlink:href="#URWPalladioL-Roma-2e" transform="translate(131.754897 0) scale(0.996264)"/>
       <use xlink:href="#URWPalladioL-Roma-35" transform="translate(156.661497 0) scale(0.996264)"/>
      </g>
     </g>
    </g>
    <g id="ytick_7">
     <g id="line2d_77">
      <defs>
       <path id="m67d8118e39" d="M 0 0 
L 3 0 
" style="stroke: #000000; stroke-width: 0.5"/>
      </defs>
      <g>
       <use xlink:href="#m67d8118e39" x="57.475895" y="500.006783" style="stroke: #000000; stroke-width: 0.5"/>
      </g>
     </g>
     <g id="line2d_78">
      <defs>
       <path id="m8f16d36628" d="M 0 0 
L -3 0 
" style="stroke: #000000; stroke-width: 0.5"/>
      </defs>
      <g>
       <use xlink:href="#m8f16d36628" x="727.075895" y="500.006783" style="stroke: #000000; stroke-width: 0.5"/>
      </g>
     </g>
    </g>
    <g id="ytick_8">
     <g id="line2d_79">
      <g>
       <use xlink:href="#m67d8118e39" x="57.475895" y="480.048383" style="stroke: #000000; stroke-width: 0.5"/>
      </g>
     </g>
     <g id="line2d_80">
      <g>
       <use xlink:href="#m8f16d36628" x="727.075895" y="480.048383" style="stroke: #000000; stroke-width: 0.5"/>
      </g>
     </g>
    </g>
    <g id="ytick_9">
     <g id="line2d_81">
      <g>
       <use xlink:href="#m67d8118e39" x="57.475895" y="460.089983" style="stroke: #000000; stroke-width: 0.5"/>
      </g>
     </g>
     <g id="line2d_82">
      <g>
       <use xlink:href="#m8f16d36628" x="727.075895" y="460.089983" style="stroke: #000000; stroke-width: 0.5"/>
      </g>
     </g>
    </g>
    <g id="ytick_10">
     <g id="line2d_83">
      <g>
       <use xlink:href="#m67d8118e39" x="57.475895" y="440.131583" style="stroke: #000000; stroke-width: 0.5"/>
      </g>
     </g>
     <g id="line2d_84">
      <g>
       <use xlink:href="#m8f16d36628" x="727.075895" y="440.131583" style="stroke: #000000; stroke-width: 0.5"/>
      </g>
     </g>
    </g>
    <g id="ytick_11">
     <g id="line2d_85">
      <g>
       <use xlink:href="#m67d8118e39" x="57.475895" y="400.214783" style="stroke: #000000; stroke-width: 0.5"/>
      </g>
     </g>
     <g id="line2d_86">
      <g>
       <use xlink:href="#m8f16d36628" x="727.075895" y="400.214783" style="stroke: #000000; stroke-width: 0.5"/>
      </g>
     </g>
    </g>
    <g id="ytick_12">
     <g id="line2d_87">
      <g>
       <use xlink:href="#m67d8118e39" x="57.475895" y="380.256383" style="stroke: #000000; stroke-width: 0.5"/>
      </g>
     </g>
     <g id="line2d_88">
      <g>
       <use xlink:href="#m8f16d36628" x="727.075895" y="380.256383" style="stroke: #000000; stroke-width: 0.5"/>
      </g>
     </g>
    </g>
    <g id="ytick_13">
     <g id="line2d_89">
      <g>
       <use xlink:href="#m67d8118e39" x="57.475895" y="360.297983" style="stroke: #000000; stroke-width: 0.5"/>
      </g>
     </g>
     <g id="line2d_90">
      <g>
       <use xlink:href="#m8f16d36628" x="727.075895" y="360.297983" style="stroke: #000000; stroke-width: 0.5"/>
      </g>
     </g>
    </g>
    <g id="ytick_14">
     <g id="line2d_91">
      <g>
       <use xlink:href="#m67d8118e39" x="57.475895" y="340.339583" style="stroke: #000000; stroke-width: 0.5"/>
      </g>
     </g>
     <g id="line2d_92">
      <g>
       <use xlink:href="#m8f16d36628" x="727.075895" y="340.339583" style="stroke: #000000; stroke-width: 0.5"/>
      </g>
     </g>
    </g>
    <g id="ytick_15">
     <g id="line2d_93">
      <g>
       <use xlink:href="#m67d8118e39" x="57.475895" y="300.422783" style="stroke: #000000; stroke-width: 0.5"/>
      </g>
     </g>
     <g id="line2d_94">
      <g>
       <use xlink:href="#m8f16d36628" x="727.075895" y="300.422783" style="stroke: #000000; stroke-width: 0.5"/>
      </g>
     </g>
    </g>
    <g id="ytick_16">
     <g id="line2d_95">
      <g>
       <use xlink:href="#m67d8118e39" x="57.475895" y="280.464383" style="stroke: #000000; stroke-width: 0.5"/>
      </g>
     </g>
     <g id="line2d_96">
      <g>
       <use xlink:href="#m8f16d36628" x="727.075895" y="280.464383" style="stroke: #000000; stroke-width: 0.5"/>
      </g>
     </g>
    </g>
    <g id="ytick_17">
     <g id="line2d_97">
      <g>
       <use xlink:href="#m67d8118e39" x="57.475895" y="260.505983" style="stroke: #000000; stroke-width: 0.5"/>
      </g>
     </g>
     <g id="line2d_98">
      <g>
       <use xlink:href="#m8f16d36628" x="727.075895" y="260.505983" style="stroke: #000000; stroke-width: 0.5"/>
      </g>
     </g>
    </g>
    <g id="ytick_18">
     <g id="line2d_99">
      <g>
       <use xlink:href="#m67d8118e39" x="57.475895" y="240.547583" style="stroke: #000000; stroke-width: 0.5"/>
      </g>
     </g>
     <g id="line2d_100">
      <g>
       <use xlink:href="#m8f16d36628" x="727.075895" y="240.547583" style="stroke: #000000; stroke-width: 0.5"/>
      </g>
     </g>
    </g>
    <g id="ytick_19">
     <g id="line2d_101">
      <g>
       <use xlink:href="#m67d8118e39" x="57.475895" y="200.630783" style="stroke: #000000; stroke-width: 0.5"/>
      </g>
     </g>
     <g id="line2d_102">
      <g>
       <use xlink:href="#m8f16d36628" x="727.075895" y="200.630783" style="stroke: #000000; stroke-width: 0.5"/>
      </g>
     </g>
    </g>
    <g id="ytick_20">
     <g id="line2d_103">
      <g>
       <use xlink:href="#m67d8118e39" x="57.475895" y="180.672383" style="stroke: #000000; stroke-width: 0.5"/>
      </g>
     </g>
     <g id="line2d_104">
      <g>
       <use xlink:href="#m8f16d36628" x="727.075895" y="180.672383" style="stroke: #000000; stroke-width: 0.5"/>
      </g>
     </g>
    </g>
    <g id="ytick_21">
     <g id="line2d_105">
      <g>
       <use xlink:href="#m67d8118e39" x="57.475895" y="160.713983" style="stroke: #000000; stroke-width: 0.5"/>
      </g>
     </g>
     <g id="line2d_106">
      <g>
       <use xlink:href="#m8f16d36628" x="727.075895" y="160.713983" style="stroke: #000000; stroke-width: 0.5"/>
      </g>
     </g>
    </g>
    <g id="ytick_22">
     <g id="line2d_107">
      <g>
       <use xlink:href="#m67d8118e39" x="57.475895" y="140.755583" style="stroke: #000000; stroke-width: 0.5"/>
      </g>
     </g>
     <g id="line2d_108">
      <g>
       <use xlink:href="#m8f16d36628" x="727.075895" y="140.755583" style="stroke: #000000; stroke-width: 0.5"/>
      </g>
     </g>
    </g>
    <g id="ytick_23">
     <g id="line2d_109">
      <g>
       <use xlink:href="#m67d8118e39" x="57.475895" y="100.838783" style="stroke: #000000; stroke-width: 0.5"/>
      </g>
     </g>
     <g id="line2d_110">
      <g>
       <use xlink:href="#m8f16d36628" x="727.075895" y="100.838783" style="stroke: #000000; stroke-width: 0.5"/>
      </g>
     </g>
    </g>
    <g id="ytick_24">
     <g id="line2d_111">
      <g>
       <use xlink:href="#m67d8118e39" x="57.475895" y="80.880383" style="stroke: #000000; stroke-width: 0.5"/>
      </g>
     </g>
     <g id="line2d_112">
      <g>
       <use xlink:href="#m8f16d36628" x="727.075895" y="80.880383" style="stroke: #000000; stroke-width: 0.5"/>
      </g>
     </g>
    </g>
    <g id="ytick_25">
     <g id="line2d_113">
      <g>
       <use xlink:href="#m67d8118e39" x="57.475895" y="60.921983" style="stroke: #000000; stroke-width: 0.5"/>
      </g>
     </g>
     <g id="line2d_114">
      <g>
       <use xlink:href="#m8f16d36628" x="727.075895" y="60.921983" style="stroke: #000000; stroke-width: 0.5"/>
      </g>
     </g>
    </g>
    <g id="ytick_26">
     <g id="line2d_115">
      <g>
       <use xlink:href="#m67d8118e39" x="57.475895" y="40.963583" style="stroke: #000000; stroke-width: 0.5"/>
      </g>
     </g>
     <g id="line2d_116">
      <g>
       <use xlink:href="#m8f16d36628" x="727.075895" y="40.963583" style="stroke: #000000; stroke-width: 0.5"/>
      </g>
     </g>
    </g>
    <g id="text_14">
     <!-- Training error : $\log_{10}\left(\text{E}_\text{MS}\right)$ -->
     <g transform="translate(15.889911 365.566608) rotate(-90) scale(0.16 -0.16)">
      <defs>
       <path id="URWPalladioL-Roma-54" d="M 1632 4096 
C 1651 3880 1658 3734 1658 3462 
L 1658 781 
C 1658 280 1626 230 1331 211 
L 1024 192 
L 1024 0 
C 1402 -7 1626 0 1958 0 
C 2291 19 2522 12 2899 0 
L 2899 192 
L 2592 211 
C 2298 230 2266 280 2266 781 
L 2266 3462 
C 2266 3747 2272 3887 2291 4096 
L 3283 4096 
C 3462 4096 3533 4039 3539 3887 
L 3565 3386 
L 3763 3386 
C 3763 3801 3776 4051 3808 4416 
C 3347 4409 3136 4409 2957 4403 
C 2707 4390 2522 4390 2426 4390 
L 1414 4390 
C 1350 4390 1005 4396 550 4403 
L 115 4416 
C 147 4051 160 3801 160 3385 
L 358 3385 
L 384 3891 
C 390 4038 461 4096 640 4096 
L 1632 4096 
z
" transform="scale(0.015625)"/>
       <path id="URWPalladioL-Roma-3a" d="M 787 678 
C 595 678 422 499 422 307 
C 422 115 595 -64 781 -64 
C 986 -64 1165 108 1165 307 
C 1165 499 986 678 787 678 
z
M 787 2880 
C 595 2880 422 2700 422 2508 
C 422 2316 595 2137 781 2137 
C 986 2137 1165 2310 1165 2502 
C 1165 2700 986 2880 787 2880 
z
" transform="scale(0.015625)"/>
       <path id="URWPalladioL-Roma-6c" d="M 147 4249 
L 506 4249 
C 621 4249 666 4179 666 3987 
L 666 672 
C 666 268 646 224 429 211 
L 134 192 
L 134 0 
C 774 0 774 0 934 0 
C 1094 19 1094 19 1734 0 
L 1734 192 
L 1440 211 
C 1222 224 1203 268 1203 672 
L 1203 4614 
L 1146 4665 
C 864 4557 653 4505 147 4429 
L 147 4249 
z
" transform="scale(0.015625)"/>
       <path id="CMR10-28" d="M 2118 -1536 
C 2118 -1517 2118 -1504 2010 -1396 
C 1210 -589 1005 620 1005 1600 
C 1005 2713 1248 3827 2035 4627 
C 2118 4704 2118 4716 2118 4736 
C 2118 4780 2093 4800 2054 4800 
C 1990 4800 1414 4365 1037 3552 
C 710 2848 634 2137 634 1600 
C 634 1100 704 326 1056 -397 
C 1440 -1184 1990 -1600 2054 -1600 
C 2093 -1600 2118 -1581 2118 -1536 
z
" transform="scale(0.015625)"/>
       <path id="URWPalladioL-Roma-45" d="M 141 4223 
L 448 4204 
C 742 4185 774 4135 774 3633 
L 774 782 
C 774 280 749 236 448 211 
L 218 192 
L 218 0 
C 640 -7 826 0 1005 0 
C 1037 0 1216 0 1459 -7 
C 2349 0 2349 0 2490 0 
C 2688 -20 2688 -20 3558 0 
C 3558 371 3597 716 3661 1049 
L 3437 1049 
C 3424 947 3411 857 3405 832 
C 3366 556 3283 358 3194 326 
C 3059 300 2592 268 2016 268 
C 1683 268 1568 281 1382 319 
L 1382 2093 
C 1562 2105 1754 2112 2042 2112 
C 2515 2112 2688 2093 2803 2035 
L 2854 1877 
L 2886 1503 
L 3078 1503 
C 3059 2093 3059 2093 3059 2208 
C 3059 2310 3059 2310 3078 2946 
L 2886 2946 
L 2854 2615 
C 2848 2558 2829 2501 2803 2450 
C 2688 2399 2509 2380 2086 2380 
C 1818 2380 1600 2387 1382 2399 
L 1382 4096 
C 1581 4140 1690 4147 2131 4147 
C 2496 4147 2854 4115 3059 4058 
C 3213 4020 3232 3988 3232 3842 
L 3232 3429 
L 3456 3429 
C 3456 3810 3488 4115 3558 4396 
C 3245 4409 3046 4416 2765 4416 
C 2605 4416 2394 4416 2131 4409 
C 1728 4403 1453 4396 1280 4396 
C 1062 4396 774 4403 141 4416 
L 141 4223 
z
" transform="scale(0.015625)"/>
       <path id="URWPalladioL-Roma-4d" d="M 4685 787 
C 4685 281 4659 236 4358 211 
L 4141 192 
L 4141 0 
C 4435 -7 4627 0 4960 0 
C 5318 19 5549 12 5926 0 
L 5926 192 
L 5619 211 
C 5325 230 5293 280 5293 782 
L 5293 3633 
C 5293 4128 5325 4185 5619 4204 
L 5888 4223 
L 5888 4416 
C 5402 4396 5402 4396 5293 4396 
C 5197 4396 5197 4396 4685 4416 
L 3008 884 
L 1318 4416 
C 806 4396 806 4396 710 4396 
C 614 4396 614 4396 102 4416 
L 102 4223 
L 384 4204 
C 678 4185 710 4128 710 3633 
L 710 782 
C 710 287 678 230 384 211 
L 102 192 
L 102 0 
C 736 0 736 0 845 0 
C 941 19 941 19 1613 0 
L 1613 192 
L 1331 211 
C 1037 230 1005 288 1005 787 
L 1005 3718 
L 2790 -64 
L 2918 -64 
C 2963 32 3002 134 3040 230 
C 3142 480 3219 659 3264 748 
L 4403 3168 
C 4493 3353 4570 3501 4685 3718 
L 4685 787 
z
" transform="scale(0.015625)"/>
       <path id="URWPalladioL-Roma-53" d="M 2861 3371 
C 2861 3711 2886 3929 2950 4275 
C 2438 4479 2150 4544 1798 4544 
C 845 4544 154 3942 154 3102 
C 154 2788 237 2557 422 2384 
C 640 2185 934 2083 1555 1999 
C 2048 1929 2272 1858 2438 1711 
C 2605 1576 2682 1390 2682 1147 
C 2682 570 2202 153 1536 153 
C 1024 153 525 403 493 666 
L 442 1095 
L 237 1095 
C 243 980 243 877 243 839 
C 243 544 230 403 192 115 
C 557 -45 928 -128 1299 -128 
C 2413 -128 3219 544 3219 1474 
C 3219 1775 3136 1986 2957 2153 
C 2733 2365 2464 2448 1747 2544 
C 966 2647 691 2858 691 3352 
C 691 3890 1094 4275 1658 4275 
C 1907 4275 2144 4224 2317 4127 
C 2528 4018 2598 3922 2618 3736 
L 2656 3371 
L 2861 3371 
z
" transform="scale(0.015625)"/>
       <path id="CMR10-29" d="M 1850 1600 
C 1850 2099 1779 2873 1427 3597 
C 1043 4384 493 4800 429 4800 
C 390 4800 365 4774 365 4736 
C 365 4716 365 4704 486 4589 
C 1114 3955 1478 2937 1478 1600 
C 1478 505 1242 -621 448 -1428 
C 365 -1504 365 -1517 365 -1536 
C 365 -1575 390 -1600 429 -1600 
C 493 -1600 1069 -1165 1446 -352 
C 1773 352 1850 1062 1850 1600 
z
" transform="scale(0.015625)"/>
      </defs>
      <use xlink:href="#URWPalladioL-Roma-54" transform="scale(0.996264)"/>
      <use xlink:href="#URWPalladioL-Roma-72" transform="translate(52.104474 0) scale(0.996264)"/>
      <use xlink:href="#URWPalladioL-Roma-61" transform="translate(91.45637 0) scale(0.996264)"/>
      <use xlink:href="#URWPalladioL-Roma-69" transform="translate(141.269571 0) scale(0.996264)"/>
      <use xlink:href="#URWPalladioL-Roma-6e" transform="translate(170.259932 0) scale(0.996264)"/>
      <use xlink:href="#URWPalladioL-Roma-69" transform="translate(228.241993 0) scale(0.996264)"/>
      <use xlink:href="#URWPalladioL-Roma-6e" transform="translate(257.232354 0) scale(0.996264)"/>
      <use xlink:href="#URWPalladioL-Roma-67" transform="translate(315.214415 0) scale(0.996264)"/>
      <use xlink:href="#URWPalladioL-Roma-65" transform="translate(395.512692 0) scale(0.996264)"/>
      <use xlink:href="#URWPalladioL-Roma-72" transform="translate(443.232987 0) scale(0.996264)"/>
      <use xlink:href="#URWPalladioL-Roma-72" transform="translate(482.584884 0) scale(0.996264)"/>
      <use xlink:href="#URWPalladioL-Roma-6f" transform="translate(520.144201 0) scale(0.996264)"/>
      <use xlink:href="#URWPalladioL-Roma-72" transform="translate(574.539781 0) scale(0.996264)"/>
      <use xlink:href="#URWPalladioL-Roma-3a" transform="translate(638.798278 0) scale(0.996264)"/>
      <use xlink:href="#URWPalladioL-Roma-6c" transform="translate(694.58891 0) scale(0.996264)"/>
      <use xlink:href="#URWPalladioL-Roma-6f" transform="translate(723.579272 0) scale(0.996264)"/>
      <use xlink:href="#URWPalladioL-Roma-67" transform="translate(777.974852 0) scale(0.996264)"/>
      <use xlink:href="#URWPalladioL-Roma-31" transform="translate(833.366529 -31.879901) scale(0.757155)"/>
      <use xlink:href="#URWPalladioL-Roma-30" transform="translate(871.224288 -31.879901) scale(0.757155)"/>
      <use xlink:href="#CMR10-28" transform="translate(927.429838 -1.04608) scale(1.038107)"/>
      <use xlink:href="#URWPalladioL-Roma-45" transform="translate(968.924243 0) scale(0.996264)"/>
      <use xlink:href="#URWPalladioL-Roma-4d" transform="translate(1029.795874 -19.410548) scale(0.757155)"/>
      <use xlink:href="#URWPalladioL-Roma-53" transform="translate(1101.422461 -19.410548) scale(0.757155)"/>
      <use xlink:href="#CMR10-29" transform="translate(1142.916501 -1.04608) scale(1.038107)"/>
     </g>
    </g>
   </g>
   <g id="line2d_117">
    <path d="M 60.564176 -1 
L 60.840719 47.415095 
L 64.205543 213.485417 
L 67.570367 256.565181 
L 70.935192 268.6452 
L 74.300016 281.583803 
L 77.66484 292.378272 
L 81.029664 301.522903 
L 87.759312 313.006326 
L 91.124136 320.956372 
L 94.48896 330.048825 
L 97.853785 336.442957 
L 101.218609 343.679772 
L 104.583433 344.037405 
L 107.948257 356.287471 
L 111.313081 364.919771 
L 114.677905 369.224469 
L 118.042729 372.913206 
L 121.407553 381.993999 
L 124.772377 386.043169 
L 128.137202 387.620503 
L 131.502026 384.759729 
L 134.86685 388.952613 
L 138.231674 391.357717 
L 141.596498 394.549757 
L 144.961322 396.716916 
L 148.326146 393.602771 
L 151.69097 396.788683 
L 155.055795 399.0593 
L 158.420619 404.550524 
L 161.785443 403.944664 
L 165.150267 408.626778 
L 168.515091 398.82366 
L 171.879915 411.330218 
L 175.244739 406.327948 
L 178.609563 412.463449 
L 181.974388 411.942042 
L 185.339212 410.639075 
L 188.704036 417.117769 
L 192.06886 417.013069 
L 195.433684 418.988918 
L 198.798508 416.794293 
L 202.163332 412.827445 
L 205.528156 424.782916 
L 208.892981 423.474314 
L 212.257805 421.858881 
L 215.622629 419.09492 
L 218.987453 423.72695 
L 222.352277 428.155112 
L 225.717101 429.729284 
L 229.081925 429.088296 
L 232.446749 427.574867 
L 235.811573 432.475971 
L 239.176398 437.008735 
L 242.541222 432.995204 
L 245.906046 434.035268 
L 249.27087 433.800996 
L 252.635694 437.398771 
L 256.000518 428.60919 
L 259.365342 440.106369 
L 262.730166 440.996393 
L 266.094991 442.316304 
L 269.459815 442.589979 
L 272.824639 432.280572 
L 276.189463 448.761247 
L 279.554287 441.720481 
L 282.919111 450.944493 
L 286.283935 448.069215 
L 289.648759 455.46606 
L 293.013584 448.108382 
L 296.378408 453.657345 
L 299.743232 456.386076 
L 303.108056 460.743409 
L 306.47288 454.968905 
L 309.837704 460.852585 
L 313.202528 461.653006 
L 316.567352 459.350834 
L 319.932176 466.48601 
L 323.297001 470.347893 
L 326.661825 467.875673 
L 330.026649 469.729922 
L 333.391473 470.226846 
L 336.756297 472.026585 
L 340.121121 474.609725 
L 343.485945 475.39189 
L 346.850769 467.891664 
L 350.215594 475.159204 
L 353.580418 477.644395 
L 356.945242 474.45668 
L 360.310066 477.248877 
L 363.67489 478.572551 
L 367.039714 484.330906 
L 370.404538 481.833217 
L 373.769362 483.54928 
L 377.134187 486.746349 
L 380.499011 482.042602 
L 383.863835 485.967901 
L 387.228659 487.975285 
L 390.593483 487.959074 
L 393.958307 489.548476 
L 397.323131 488.274393 
L 400.687955 483.730717 
L 404.05278 490.470277 
L 407.417604 477.154866 
L 410.782428 481.391716 
L 414.147252 490.023283 
L 417.512076 494.007772 
L 420.8769 493.742277 
L 424.241724 497.060225 
L 427.606548 494.148047 
L 430.971372 493.876731 
L 434.336197 496.291579 
L 437.701021 493.50055 
L 441.065845 489.4117 
L 444.430669 491.76626 
L 447.795493 497.231814 
L 451.160317 491.115073 
L 454.525141 493.970448 
L 457.889965 489.444014 
L 461.25479 497.574074 
L 464.619614 497.103113 
L 467.984438 495.136151 
L 471.349262 493.870943 
L 474.714086 490.834351 
L 478.07891 497.411813 
L 481.443734 494.164524 
L 484.808558 496.304162 
L 488.173383 497.195187 
L 491.538207 498.941282 
L 494.903031 496.824255 
L 498.267855 501.500484 
L 501.632679 499.767113 
L 504.997503 496.970213 
L 508.362327 498.58121 
L 511.727151 499.544351 
L 515.091975 499.064978 
L 518.4568 500.39045 
L 521.821624 505.130086 
L 525.186448 494.523622 
L 528.551272 504.528136 
L 531.916096 501.696469 
L 535.28092 498.615151 
L 538.645744 502.410189 
L 542.010568 505.604471 
L 545.375393 502.924754 
L 548.740217 506.935882 
L 552.105041 504.928226 
L 555.469865 506.923153 
L 558.834689 500.804322 
L 562.199513 507.898149 
L 565.564337 504.634081 
L 568.929161 506.663679 
L 572.293986 501.135706 
L 575.65881 506.762876 
L 579.023634 500.261393 
L 582.388458 507.704731 
L 585.753282 503.24804 
L 589.118106 507.621871 
L 592.48293 498.148841 
L 595.847754 505.309403 
L 599.212578 510.101324 
L 602.577403 507.306972 
L 605.942227 509.126914 
L 609.307051 512.755811 
L 612.671875 501.693771 
L 616.036699 511.847001 
L 619.401523 501.464316 
L 622.766347 508.031152 
L 626.131171 510.938167 
L 629.495996 508.645446 
L 632.86082 508.278306 
L 636.225644 509.708043 
L 639.590468 511.011503 
L 642.955292 513.793745 
L 646.320116 515.83827 
L 649.68494 507.060417 
L 653.049764 513.404446 
L 656.414589 509.179358 
L 659.779413 513.433268 
L 663.144237 507.633575 
L 666.509061 511.402565 
L 669.873885 511.635403 
L 673.238709 516.568622 
L 676.603533 512.466212 
L 679.968357 518.851883 
L 683.333182 514.934225 
L 686.698006 513.512059 
L 690.06283 511.217012 
L 693.427654 511.255232 
L 696.792478 514.182034 
L 700.157302 514.456685 
L 703.522126 513.338372 
L 706.88695 518.292911 
L 710.251774 517.108065 
L 713.616599 505.887228 
L 716.981423 513.500544 
L 720.346247 512.293626 
L 723.711071 514.620132 
L 727.075895 515.334033 
L 727.075895 515.334033 
" clip-path="url(#p285e1ddec9)" style="fill: none; stroke: #bb0000; stroke-width: 3; stroke-linecap: square"/>
   </g>
   <g id="line2d_118">
    <path d="M 60.52691 -1 
L 60.840719 49.858242 
L 64.205543 78.937301 
L 67.570367 240.730946 
L 70.935192 265.236032 
L 74.300016 293.605131 
L 77.66484 304.497647 
L 91.124136 319.630059 
L 94.48896 325.290868 
L 97.853785 328.799035 
L 101.218609 336.828463 
L 104.583433 342.017506 
L 107.948257 345.840058 
L 111.313081 348.426455 
L 114.677905 353.531266 
L 118.042729 348.666732 
L 121.407553 360.434833 
L 124.772377 361.05873 
L 128.137202 364.656674 
L 131.502026 369.557193 
L 134.86685 372.356324 
L 138.231674 377.369234 
L 141.596498 380.718607 
L 144.961322 380.549257 
L 148.326146 379.584326 
L 151.69097 384.330089 
L 155.055795 385.851413 
L 158.420619 384.468298 
L 161.785443 384.989378 
L 165.150267 387.950623 
L 168.515091 388.420308 
L 171.879915 392.098125 
L 175.244739 395.087614 
L 178.609563 393.811409 
L 181.974388 396.198128 
L 185.339212 400.829591 
L 188.704036 399.796442 
L 192.06886 405.804129 
L 195.433684 401.543341 
L 198.798508 409.126321 
L 202.163332 408.432987 
L 205.528156 411.125942 
L 208.892981 413.072249 
L 212.257805 415.555168 
L 215.622629 415.474378 
L 218.987453 417.594414 
L 222.352277 416.086476 
L 225.717101 418.439578 
L 229.081925 421.392438 
L 232.446749 419.241378 
L 235.811573 421.468746 
L 239.176398 423.874491 
L 242.541222 427.302004 
L 245.906046 427.465302 
L 249.27087 421.864835 
L 252.635694 426.573914 
L 256.000518 428.463374 
L 259.365342 427.980743 
L 262.730166 427.246532 
L 266.094991 429.083959 
L 269.459815 432.074171 
L 272.824639 429.535778 
L 276.189463 430.92624 
L 279.554287 431.744234 
L 282.919111 429.584764 
L 286.283935 433.103827 
L 289.648759 428.896637 
L 293.013584 432.000297 
L 296.378408 433.305526 
L 299.743232 433.341072 
L 306.47288 431.805378 
L 309.837704 435.078401 
L 313.202528 433.283869 
L 316.567352 435.549487 
L 319.932176 433.078696 
L 323.297001 433.522219 
L 326.661825 433.331404 
L 330.026649 437.519434 
L 333.391473 434.85433 
L 336.756297 440.068031 
L 340.121121 439.556733 
L 343.485945 436.081866 
L 346.850769 439.292866 
L 350.215594 437.035651 
L 353.580418 438.861255 
L 356.945242 439.84208 
L 360.310066 441.467174 
L 363.67489 441.016877 
L 367.039714 436.746342 
L 370.404538 442.085069 
L 373.769362 437.450393 
L 377.134187 441.033208 
L 380.499011 442.596941 
L 383.863835 439.481967 
L 387.228659 444.273965 
L 390.593483 441.409635 
L 393.958307 443.656814 
L 397.323131 440.955627 
L 400.687955 443.571095 
L 404.05278 445.49625 
L 407.417604 444.185765 
L 410.782428 446.473576 
L 414.147252 442.405248 
L 417.512076 444.212817 
L 420.8769 441.365662 
L 424.241724 445.406316 
L 427.606548 444.221708 
L 430.971372 447.237075 
L 434.336197 447.830575 
L 437.701021 445.560339 
L 441.065845 449.249431 
L 444.430669 445.901717 
L 447.795493 449.841738 
L 451.160317 447.261595 
L 454.525141 450.569672 
L 457.889965 451.13843 
L 461.25479 449.136816 
L 464.619614 448.259497 
L 467.984438 451.47453 
L 471.349262 450.031666 
L 474.714086 449.597895 
L 478.07891 449.695222 
L 481.443734 449.014651 
L 484.808558 451.665361 
L 488.173383 455.013897 
L 491.538207 453.345037 
L 494.903031 455.704131 
L 498.267855 452.49924 
L 501.632679 455.447085 
L 504.997503 452.497846 
L 508.362327 454.59167 
L 511.727151 451.269871 
L 515.091975 453.915017 
L 518.4568 452.041053 
L 521.821624 453.556115 
L 525.186448 453.794147 
L 528.551272 453.594133 
L 531.916096 456.426614 
L 535.28092 455.031942 
L 538.645744 455.079551 
L 542.010568 458.436462 
L 545.375393 456.106132 
L 548.740217 454.994653 
L 552.105041 455.561447 
L 555.469865 454.064091 
L 558.834689 456.194894 
L 562.199513 458.893034 
L 565.564337 459.041902 
L 568.929161 456.059148 
L 572.293986 461.294415 
L 575.65881 459.13331 
L 579.023634 459.167084 
L 582.388458 459.574603 
L 585.753282 458.257911 
L 589.118106 460.117204 
L 592.48293 457.83253 
L 595.847754 461.749609 
L 599.212578 462.771157 
L 602.577403 461.604705 
L 605.942227 461.739028 
L 609.307051 459.932156 
L 612.671875 462.987032 
L 616.036699 462.602984 
L 619.401523 465.198573 
L 622.766347 461.7927 
L 626.131171 463.017357 
L 629.495996 457.663483 
L 632.86082 465.110283 
L 636.225644 466.922698 
L 639.590468 466.403307 
L 642.955292 467.625756 
L 646.320116 465.383467 
L 649.68494 463.428706 
L 653.049764 461.822254 
L 656.414589 468.29005 
L 659.779413 468.554927 
L 663.144237 468.544768 
L 666.509061 467.821392 
L 669.873885 465.59306 
L 673.238709 463.553189 
L 676.603533 467.869857 
L 679.968357 468.294691 
L 683.333182 465.319338 
L 686.698006 466.939724 
L 690.06283 465.629035 
L 693.427654 467.603139 
L 696.792478 470.70218 
L 703.522126 468.670522 
L 706.88695 466.464503 
L 710.251774 470.512451 
L 713.616599 470.002166 
L 716.981423 470.752364 
L 720.346247 468.689944 
L 723.711071 471.621638 
L 727.075895 471.39583 
L 727.075895 471.39583 
" clip-path="url(#p285e1ddec9)" style="fill: none; stroke: #00bb00; stroke-width: 3; stroke-linecap: square"/>
   </g>
   <g id="line2d_119">
    <path d="M 60.530357 -1 
L 60.840719 50.943639 
L 64.205543 199.92148 
L 67.570367 229.940617 
L 70.935192 266.114622 
L 74.300016 279.449703 
L 77.66484 286.501195 
L 81.029664 294.467512 
L 84.394488 304.259 
L 87.759312 308.025965 
L 91.124136 312.00469 
L 94.48896 315.017269 
L 97.853785 317.177119 
L 101.218609 321.061041 
L 104.583433 323.884226 
L 107.948257 326.131454 
L 111.313081 327.693214 
L 114.677905 333.337665 
L 118.042729 337.940139 
L 121.407553 342.028477 
L 124.772377 347.190104 
L 128.137202 352.845622 
L 131.502026 356.47134 
L 134.86685 361.121837 
L 138.231674 358.783631 
L 141.596498 365.709486 
L 144.961322 367.346896 
L 151.69097 369.090687 
L 155.055795 370.665874 
L 158.420619 371.56025 
L 161.785443 372.843817 
L 165.150267 372.982283 
L 168.515091 375.581538 
L 171.879915 375.840848 
L 175.244739 377.47836 
L 178.609563 379.251349 
L 181.974388 380.291584 
L 185.339212 382.702637 
L 188.704036 390.125564 
L 192.06886 390.959771 
L 195.433684 391.465321 
L 198.798508 393.66841 
L 202.163332 394.27257 
L 205.528156 399.282253 
L 208.892981 399.823341 
L 212.257805 399.718639 
L 215.622629 404.039826 
L 218.987453 403.881412 
L 222.352277 402.279105 
L 225.717101 404.921107 
L 229.081925 403.069318 
L 232.446749 404.835292 
L 235.811573 404.53153 
L 239.176398 404.447061 
L 242.541222 406.44886 
L 245.906046 407.951754 
L 249.27087 405.500381 
L 252.635694 406.404773 
L 256.000518 407.066315 
L 259.365342 405.283265 
L 262.730166 408.08781 
L 266.094991 404.692304 
L 269.459815 404.318151 
L 272.824639 406.37981 
L 276.189463 405.223554 
L 279.554287 406.120162 
L 282.919111 403.043208 
L 289.648759 406.505791 
L 293.013584 405.923886 
L 296.378408 405.707861 
L 299.743232 406.183638 
L 306.47288 409.558788 
L 309.837704 406.582076 
L 313.202528 407.116533 
L 316.567352 408.832799 
L 319.932176 409.644861 
L 323.297001 408.66162 
L 326.661825 405.921286 
L 330.026649 408.87538 
L 333.391473 408.534951 
L 336.756297 409.226486 
L 340.121121 403.763372 
L 343.485945 409.002175 
L 346.850769 406.278851 
L 350.215594 409.150439 
L 353.580418 407.843858 
L 356.945242 409.210533 
L 360.310066 411.014612 
L 363.67489 410.787216 
L 367.039714 410.247768 
L 370.404538 406.489491 
L 373.769362 410.887161 
L 377.134187 412.085209 
L 380.499011 407.028424 
L 383.863835 408.990917 
L 387.228659 409.676435 
L 390.593483 409.743373 
L 393.958307 409.474561 
L 397.323131 408.792441 
L 400.687955 411.933536 
L 404.05278 408.658956 
L 407.417604 408.619337 
L 410.782428 410.869813 
L 414.147252 412.413003 
L 420.8769 407.300427 
L 424.241724 409.355057 
L 427.606548 409.754025 
L 430.971372 411.182954 
L 434.336197 409.469693 
L 437.701021 409.920749 
L 441.065845 412.279881 
L 444.430669 405.529494 
L 447.795493 411.306975 
L 451.160317 410.432709 
L 454.525141 411.848989 
L 457.889965 411.268631 
L 461.25479 411.725226 
L 464.619614 409.033861 
L 467.984438 412.404942 
L 471.349262 409.257607 
L 474.714086 411.625231 
L 478.07891 410.837142 
L 481.443734 411.460243 
L 484.808558 410.693319 
L 488.173383 410.311992 
L 491.538207 413.060968 
L 494.903031 410.505303 
L 498.267855 409.979158 
L 501.632679 410.82683 
L 504.997503 411.467814 
L 508.362327 411.922798 
L 511.727151 411.147114 
L 515.091975 408.522018 
L 518.4568 410.604286 
L 521.821624 413.671917 
L 525.186448 410.636641 
L 528.551272 409.940938 
L 531.916096 412.083848 
L 535.28092 408.816504 
L 538.645744 412.306726 
L 542.010568 411.948355 
L 545.375393 410.466079 
L 548.740217 406.572581 
L 552.105041 411.959288 
L 555.469865 410.359186 
L 558.834689 410.880431 
L 562.199513 412.555735 
L 565.564337 409.8914 
L 568.929161 411.229445 
L 572.293986 411.425968 
L 575.65881 412.258158 
L 579.023634 412.201247 
L 582.388458 408.852769 
L 585.753282 412.843413 
L 589.118106 409.609725 
L 592.48293 412.467443 
L 595.847754 409.090987 
L 599.212578 411.140092 
L 602.577403 413.961787 
L 605.942227 410.198382 
L 609.307051 414.319114 
L 612.671875 414.064848 
L 616.036699 409.70523 
L 622.766347 414.87311 
L 626.131171 414.674729 
L 629.495996 410.509676 
L 632.86082 415.891768 
L 636.225644 412.019846 
L 639.590468 412.324233 
L 642.955292 413.79106 
L 646.320116 410.901119 
L 649.68494 411.945023 
L 653.049764 413.790922 
L 656.414589 415.122466 
L 659.779413 415.240395 
L 663.144237 414.68558 
L 666.509061 412.377835 
L 669.873885 414.156306 
L 673.238709 413.875569 
L 676.603533 411.86417 
L 679.968357 414.287275 
L 683.333182 415.211924 
L 690.06283 415.397522 
L 693.427654 414.489098 
L 696.792478 411.843586 
L 700.157302 415.786307 
L 703.522126 412.372612 
L 706.88695 416.806345 
L 710.251774 415.162795 
L 713.616599 412.399058 
L 716.981423 415.318163 
L 720.346247 412.911389 
L 723.711071 415.833929 
L 727.075895 412.67155 
L 727.075895 412.67155 
" clip-path="url(#p285e1ddec9)" style="fill: none; stroke: #0000bb; stroke-width: 3; stroke-linecap: square"/>
   </g>
   <g id="line2d_120">
    <path d="M 60.270121 -1 
L 60.840719 47.297214 
L 64.205543 47.633267 
L 67.570367 48.982934 
L 70.935192 106.254533 
L 74.300016 204.330782 
L 77.66484 211.411483 
L 81.029664 213.906098 
L 84.394488 213.626826 
L 87.759312 212.362934 
L 91.124136 214.461525 
L 94.48896 212.944895 
L 97.853785 212.624646 
L 101.218609 214.36542 
L 104.583433 215.937121 
L 107.948257 217.101851 
L 111.313081 229.429374 
L 114.677905 257.902701 
L 118.042729 261.514404 
L 121.407553 264.115454 
L 124.772377 269.018716 
L 128.137202 271.003267 
L 134.86685 282.099927 
L 138.231674 288.678763 
L 144.961322 298.875229 
L 148.326146 300.997585 
L 151.69097 306.722651 
L 155.055795 310.809572 
L 158.420619 311.053357 
L 161.785443 315.708172 
L 168.515091 319.922127 
L 171.879915 319.370444 
L 175.244739 324.388405 
L 178.609563 325.958494 
L 181.974388 329.042191 
L 185.339212 327.529434 
L 188.704036 330.87909 
L 192.06886 334.718159 
L 195.433684 337.594747 
L 198.798508 339.923509 
L 202.163332 342.875113 
L 205.528156 341.268992 
L 208.892981 346.560565 
L 212.257805 347.772804 
L 215.622629 348.723112 
L 218.987453 348.362428 
L 222.352277 349.033894 
L 225.717101 352.2651 
L 229.081925 351.469847 
L 232.446749 350.789637 
L 235.811573 352.838826 
L 239.176398 352.548419 
L 242.541222 353.720452 
L 245.906046 352.930982 
L 249.27087 353.552262 
L 252.635694 354.34262 
L 259.365342 354.470314 
L 266.094991 356.151162 
L 269.459815 354.782561 
L 272.824639 356.431894 
L 276.189463 356.67553 
L 279.554287 357.22628 
L 282.919111 357.248749 
L 286.283935 358.629323 
L 289.648759 357.221187 
L 293.013584 358.299578 
L 296.378408 359.634339 
L 299.743232 361.242652 
L 303.108056 360.375439 
L 306.47288 359.925929 
L 309.837704 362.695052 
L 313.202528 362.594356 
L 316.567352 363.64916 
L 319.932176 363.797629 
L 323.297001 366.042175 
L 326.661825 369.981506 
L 330.026649 368.65348 
L 333.391473 373.299074 
L 336.756297 375.366706 
L 340.121121 375.906988 
L 343.485945 376.774994 
L 346.850769 377.898895 
L 350.215594 378.000163 
L 353.580418 378.372801 
L 356.945242 379.052214 
L 360.310066 378.971788 
L 363.67489 380.60197 
L 367.039714 379.83626 
L 370.404538 381.224007 
L 373.769362 380.785185 
L 377.134187 380.633035 
L 380.499011 381.288141 
L 383.863835 381.673265 
L 387.228659 380.54661 
L 390.593483 382.609451 
L 397.323131 381.916788 
L 400.687955 382.103087 
L 404.05278 383.602244 
L 407.417604 384.619443 
L 410.782428 384.418104 
L 414.147252 383.731588 
L 417.512076 384.751295 
L 420.8769 383.881098 
L 424.241724 384.967922 
L 427.606548 384.658317 
L 430.971372 384.95787 
L 434.336197 384.10666 
L 437.701021 383.108642 
L 441.065845 384.724343 
L 447.795493 385.818993 
L 451.160317 385.279968 
L 454.525141 385.276652 
L 457.889965 385.548299 
L 461.25479 386.694603 
L 464.619614 383.024002 
L 467.984438 384.438213 
L 471.349262 386.331252 
L 478.07891 385.758255 
L 481.443734 386.824637 
L 484.808558 386.12263 
L 488.173383 386.93512 
L 491.538207 386.785011 
L 494.903031 386.216199 
L 498.267855 384.300521 
L 501.632679 385.72725 
L 504.997503 387.363823 
L 508.362327 387.512283 
L 511.727151 384.787836 
L 515.091975 386.292091 
L 518.4568 388.07914 
L 521.821624 386.663593 
L 525.186448 387.044028 
L 528.551272 384.17325 
L 531.916096 385.35288 
L 535.28092 386.044265 
L 538.645744 388.782238 
L 542.010568 386.626443 
L 545.375393 387.258885 
L 548.740217 386.804554 
L 552.105041 387.821697 
L 555.469865 387.827654 
L 558.834689 385.839746 
L 562.199513 386.449849 
L 565.564337 388.776638 
L 568.929161 387.998031 
L 572.293986 389.670398 
L 575.65881 388.313307 
L 582.388458 388.317647 
L 585.753282 389.185077 
L 589.118106 391.171605 
L 592.48293 391.554334 
L 595.847754 390.173502 
L 599.212578 388.518727 
L 602.577403 394.144261 
L 605.942227 392.077792 
L 609.307051 395.925214 
L 612.671875 394.222801 
L 616.036699 395.11311 
L 619.401523 396.859536 
L 622.766347 394.40877 
L 626.131171 396.298344 
L 629.495996 395.171994 
L 632.86082 397.081632 
L 636.225644 397.834104 
L 639.590468 398.235386 
L 642.955292 398.786249 
L 646.320116 397.599495 
L 649.68494 399.582313 
L 653.049764 399.801393 
L 656.414589 399.686315 
L 659.779413 399.205659 
L 663.144237 398.975122 
L 666.509061 400.683666 
L 669.873885 399.500072 
L 673.238709 399.358635 
L 676.603533 400.151761 
L 679.968357 401.160339 
L 686.698006 400.311768 
L 690.06283 401.268238 
L 693.427654 400.644994 
L 696.792478 400.478545 
L 700.157302 400.892668 
L 703.522126 403.10263 
L 706.88695 403.598068 
L 710.251774 403.259154 
L 713.616599 401.701005 
L 716.981423 403.83946 
L 720.346247 401.226509 
L 723.711071 403.75336 
L 727.075895 402.736335 
L 727.075895 402.736335 
" clip-path="url(#p285e1ddec9)" style="fill: none; stroke: #bbbb00; stroke-width: 3; stroke-linecap: square"/>
   </g>
   <g id="patch_3">
    <path d="M 57.475895 519.965183 
L 57.475895 21.005183 
" style="fill: none; stroke: #000000; stroke-width: 0.5; stroke-linejoin: miter; stroke-linecap: square"/>
   </g>
   <g id="patch_4">
    <path d="M 727.075895 519.965183 
L 727.075895 21.005183 
" style="fill: none; stroke: #000000; stroke-width: 0.5; stroke-linejoin: miter; stroke-linecap: square"/>
   </g>
   <g id="patch_5">
    <path d="M 57.475895 519.965183 
L 727.075895 519.965183 
" style="fill: none; stroke: #000000; stroke-width: 0.5; stroke-linejoin: miter; stroke-linecap: square"/>
   </g>
   <g id="patch_6">
    <path d="M 57.475895 21.005183 
L 727.075895 21.005183 
" style="fill: none; stroke: #000000; stroke-width: 0.5; stroke-linejoin: miter; stroke-linecap: square"/>
   </g>
   <g id="text_15">
    <!-- Global convergence of the Artificial Neural Network models -->
    <g transform="translate(179.364824 15.005183) scale(0.16 -0.16)">
     <defs>
      <path id="URWPalladioL-Roma-47" d="M 4102 3307 
L 4301 3307 
C 4301 3634 4339 3935 4429 4281 
C 3718 4486 3392 4544 2880 4544 
C 1229 4544 141 3608 141 2185 
C 141 1538 358 961 762 570 
C 1203 128 1894 -128 2637 -128 
C 3091 -128 3533 -45 4403 198 
L 4403 1275 
C 4403 1474 4410 1486 4474 1512 
L 4659 1576 
L 4634 1736 
C 4064 1724 4045 1724 3846 1724 
C 3661 1724 3622 1724 3066 1736 
L 3066 1544 
L 3597 1499 
C 3757 1486 3814 1429 3814 1275 
L 3814 627 
C 3814 474 3802 397 3776 352 
C 3706 230 3322 140 2899 140 
C 1632 140 826 986 826 2320 
C 826 3557 1517 4275 2714 4275 
C 3046 4275 3328 4236 3571 4159 
C 3942 4038 4102 3890 4102 3647 
L 4102 3307 
z
" transform="scale(0.015625)"/>
      <path id="URWPalladioL-Roma-62" d="M 960 4601 
L 902 4652 
C 621 4544 410 4492 -96 4416 
L -96 4236 
L 262 4236 
C 378 4236 422 4166 422 3974 
L 422 990 
C 422 594 416 421 371 -26 
L 474 -64 
L 730 166 
C 986 0 1216 -64 1555 -64 
C 1805 -64 1971 -20 2106 76 
L 2746 536 
C 3027 741 3251 1270 3251 1736 
C 3251 2477 2771 3008 2093 3008 
C 1792 3008 1478 2892 1312 2726 
L 960 2368 
L 960 4601 
z
M 960 1979 
C 960 2068 1024 2183 1126 2298 
C 1306 2483 1555 2591 1818 2591 
C 2355 2591 2694 2158 2694 1475 
C 2694 760 2310 262 1766 262 
C 1434 262 960 466 960 607 
L 960 1979 
z
" transform="scale(0.015625)"/>
      <path id="URWPalladioL-Roma-76" d="M 3450 2739 
L 3450 2918 
C 3066 2905 2950 2899 2848 2899 
C 2746 2899 2630 2905 2246 2918 
L 2246 2739 
L 2509 2726 
C 2611 2720 2662 2662 2662 2560 
C 2662 2457 2618 2284 2541 2092 
L 2272 1414 
C 2195 1228 2118 1049 1875 518 
L 1114 2361 
C 1075 2451 1056 2534 1056 2604 
C 1056 2675 1114 2720 1216 2726 
L 1530 2739 
L 1530 2918 
C 902 2899 902 2899 781 2899 
C 659 2899 352 2905 38 2918 
L 38 2739 
L 256 2726 
C 352 2713 384 2675 454 2515 
L 1555 -64 
L 1875 -64 
C 1914 44 1978 211 1978 224 
C 2048 416 2131 633 2138 633 
L 2893 2297 
C 3034 2598 3123 2713 3251 2726 
L 3450 2739 
z
" transform="scale(0.015625)"/>
      <path id="URWPalladioL-Roma-66" d="M 2182 4601 
C 2048 4652 1971 4672 1888 4672 
C 1683 4672 1459 4563 1318 4403 
L 947 3981 
C 762 3770 678 3482 678 3060 
L 678 2792 
L 237 2594 
L 237 2453 
L 678 2479 
L 678 671 
C 678 268 659 223 442 211 
L 147 192 
L 147 0 
C 787 0 787 0 947 0 
C 1107 19 1107 19 1747 0 
L 1747 192 
L 1453 211 
C 1235 223 1216 268 1216 671 
L 1216 2479 
L 2010 2479 
L 2054 2818 
L 1216 2792 
L 1216 3335 
C 1216 4070 1299 4249 1664 4249 
C 1837 4249 1952 4204 2106 4070 
L 2182 4108 
L 2182 4601 
z
" transform="scale(0.015625)"/>
      <path id="URWPalladioL-Roma-2" d="M 2182 4601 
C 2048 4652 1971 4672 1888 4672 
C 1683 4672 1459 4563 1318 4403 
L 947 3981 
C 762 3770 678 3482 678 3060 
L 678 2792 
L 237 2594 
L 237 2453 
L 678 2479 
L 678 671 
C 678 268 659 223 442 211 
L 147 192 
L 147 0 
C 787 0 787 0 954 0 
C 1107 19 1286 12 1786 0 
L 1786 192 
L 1453 211 
C 1235 223 1216 268 1216 669 
L 1216 2472 
L 1946 2472 
L 1990 2810 
L 1216 2784 
L 1216 3329 
C 1216 4069 1299 4249 1664 4249 
C 1837 4249 1952 4204 2106 4069 
L 2182 4107 
L 2182 4601 
z
M 3226 2963 
L 3168 3008 
C 2886 2867 2547 2778 2170 2733 
L 2170 2555 
L 2406 2555 
C 2662 2555 2688 2510 2688 2090 
L 2688 669 
C 2688 268 2669 223 2451 211 
L 2157 192 
L 2157 0 
C 2797 0 2797 0 2957 0 
C 3117 19 3117 19 3757 0 
L 3757 192 
L 3462 211 
C 3245 224 3226 268 3226 671 
L 3226 2963 
z
M 2989 4416 
C 2797 4416 2630 4249 2630 4057 
C 2630 3871 2797 3705 2982 3705 
C 3168 3705 3341 3871 3341 4057 
C 3341 4236 3168 4416 2989 4416 
z
" transform="scale(0.015625)"/>
      <path id="URWPalladioL-Roma-75" d="M 3219 2982 
L 3162 3008 
C 2835 2873 2502 2784 2163 2745 
L 2163 2567 
L 2400 2567 
C 2656 2567 2682 2522 2682 2101 
L 2682 1060 
C 2682 920 2592 741 2445 594 
C 2266 415 2061 326 1811 326 
C 1587 326 1408 396 1306 517 
C 1216 620 1171 817 1171 1098 
L 1171 2982 
L 1114 3008 
C 787 2873 454 2784 115 2745 
L 115 2567 
L 352 2567 
C 608 2567 634 2522 634 2101 
L 634 1028 
C 634 581 672 383 787 224 
C 928 32 1171 -64 1536 -64 
C 1824 -58 2080 32 2253 192 
L 2682 588 
C 2682 403 2675 300 2656 0 
C 3085 0 3091 0 3187 0 
C 3277 19 3277 19 3718 0 
L 3718 192 
L 3456 211 
C 3238 224 3219 262 3219 672 
L 3219 2982 
z
" transform="scale(0.015625)"/>
      <path id="URWPalladioL-Roma-77" d="M 2643 3008 
C 2118 1775 2022 1556 1626 651 
L 1088 2434 
C 1069 2492 1062 2544 1062 2595 
C 1062 2692 1146 2744 1306 2750 
L 1562 2763 
L 1562 2943 
C 928 2924 928 2924 800 2924 
C 672 2924 672 2924 38 2943 
L 38 2763 
L 218 2750 
C 397 2738 480 2608 640 2105 
L 1293 -64 
L 1594 -64 
L 2221 1420 
C 2253 1497 2323 1652 2426 1872 
L 2554 2143 
L 3424 -64 
L 3718 -64 
C 3763 70 3814 219 3866 361 
C 3994 742 4134 1142 4160 1181 
L 4595 2189 
C 4787 2621 4864 2731 5005 2750 
L 5171 2763 
L 5171 2943 
C 4646 2924 4646 2924 4544 2924 
C 4442 2924 4442 2924 3917 2943 
L 3917 2763 
L 4134 2750 
C 4294 2744 4384 2666 4384 2550 
C 4384 2479 4371 2402 4339 2318 
L 4019 1413 
C 3968 1271 3917 1142 3712 613 
L 2976 2486 
C 2886 2705 2842 2834 2790 3008 
L 2643 3008 
z
" transform="scale(0.015625)"/>
      <path id="URWPalladioL-Roma-6b" d="M 147 4249 
L 506 4249 
C 621 4249 666 4179 666 3987 
L 666 672 
C 666 268 646 224 429 211 
L 134 192 
L 134 0 
C 774 0 774 0 941 0 
C 1120 19 1152 19 1722 0 
L 1722 192 
L 1440 211 
C 1222 224 1203 268 1203 672 
L 1203 1555 
L 2899 -64 
L 3514 121 
L 3514 268 
C 3360 268 3174 377 2970 576 
L 2163 1376 
C 1933 1600 1862 1683 1754 1811 
L 2579 2457 
C 2880 2688 3053 2764 3270 2758 
L 3270 2950 
L 2630 2950 
C 2221 2540 1920 2259 1670 2060 
L 1203 1683 
L 1203 4608 
L 1146 4659 
C 864 4550 653 4499 147 4422 
L 147 4249 
z
" transform="scale(0.015625)"/>
      <path id="URWPalladioL-Roma-6d" d="M 115 2579 
L 352 2579 
C 608 2579 634 2534 634 2112 
L 634 672 
C 634 268 614 224 397 211 
L 102 192 
L 102 0 
C 717 0 736 0 915 0 
C 1094 19 1261 12 1677 0 
L 1677 192 
L 1408 211 
C 1190 223 1171 268 1171 670 
L 1171 2023 
C 1171 2311 1594 2624 1978 2624 
C 2323 2624 2560 2298 2560 1813 
L 2560 670 
C 2560 268 2541 223 2323 211 
L 2029 192 
L 2029 0 
C 2669 0 2669 0 2829 0 
C 2989 19 2989 19 3629 0 
L 3629 192 
L 3334 211 
C 3117 223 3098 268 3098 670 
L 3098 2023 
C 3098 2311 3520 2624 3904 2624 
C 4250 2624 4486 2298 4486 1813 
L 4486 0 
C 4877 0 4883 0 4992 0 
C 5075 19 5075 19 5562 0 
L 5562 192 
L 5261 211 
C 5043 223 5024 268 5024 670 
L 5024 1985 
C 5024 2617 4653 3014 4064 3014 
C 3840 3014 3654 2956 3539 2854 
L 3053 2419 
C 2848 2841 2586 3014 2144 3014 
C 1907 3014 1728 2956 1613 2854 
L 1171 2445 
L 1171 2988 
L 1114 3008 
C 787 2873 454 2783 115 2745 
L 115 2579 
z
" transform="scale(0.015625)"/>
      <path id="URWPalladioL-Roma-64" d="M 2637 2803 
C 2278 2956 2099 3008 1875 3008 
C 1702 3008 1549 2969 1389 2886 
L 826 2592 
C 461 2400 224 1934 224 1392 
C 224 881 397 460 710 204 
C 928 19 1229 -64 1645 -64 
C 1773 -64 1920 -39 1952 -13 
L 2662 581 
L 2630 0 
C 2944 -7 3046 0 3123 0 
C 3174 0 3264 0 3398 -7 
C 3443 6 3571 6 3706 0 
L 3706 192 
L 3411 211 
C 3194 224 3174 268 3174 672 
L 3174 4614 
L 3117 4665 
C 2835 4557 2624 4505 2118 4429 
L 2118 4249 
L 2477 4249 
C 2592 4249 2637 4179 2637 3987 
L 2637 2803 
z
M 2637 1424 
C 2637 1009 2624 945 2541 798 
C 2362 498 2048 300 1747 300 
C 1184 300 781 843 781 1602 
C 781 2298 1126 2707 1702 2707 
C 1946 2707 2202 2624 2426 2470 
C 2560 2381 2637 2298 2637 2247 
L 2637 1424 
z
" transform="scale(0.015625)"/>
      <path id="URWPalladioL-Roma-73" d="M 262 917 
C 262 474 243 282 192 25 
C 525 -84 774 -128 1069 -128 
C 1907 -128 2502 320 2502 949 
C 2502 1148 2445 1295 2323 1423 
C 2157 1584 1946 1661 1382 1770 
C 858 1872 685 2001 685 2296 
C 685 2617 909 2796 1299 2796 
C 1728 2796 2054 2572 2054 2270 
L 2054 2123 
L 2234 2123 
C 2240 2495 2246 2649 2266 2847 
C 1926 2963 1696 3008 1434 3008 
C 691 3008 237 2655 237 2078 
C 237 1770 378 1552 672 1417 
C 845 1340 1184 1237 1619 1141 
C 1907 1077 2029 942 2029 698 
C 2029 352 1709 108 1254 108 
C 787 108 454 333 454 654 
L 454 917 
L 262 917 
z
" transform="scale(0.015625)"/>
     </defs>
     <use xlink:href="#URWPalladioL-Roma-47" transform="scale(0.996264)"/>
     <use xlink:href="#URWPalladioL-Roma-6c" transform="translate(76.013746 0) scale(0.996264)"/>
     <use xlink:href="#URWPalladioL-Roma-6f" transform="translate(105.004108 0) scale(0.996264)"/>
     <use xlink:href="#URWPalladioL-Roma-62" transform="translate(159.399688 0) scale(0.996264)"/>
     <use xlink:href="#URWPalladioL-Roma-61" transform="translate(214.492087 0) scale(0.996264)"/>
     <use xlink:href="#URWPalladioL-Roma-6c" transform="translate(264.305288 0) scale(0.996264)"/>
     <use xlink:href="#URWPalladioL-Roma-63" transform="translate(318.202249 0) scale(0.996264)"/>
     <use xlink:href="#URWPalladioL-Roma-6f" transform="translate(362.435818 0) scale(0.996264)"/>
     <use xlink:href="#URWPalladioL-Roma-6e" transform="translate(416.831398 0) scale(0.996264)"/>
     <use xlink:href="#URWPalladioL-Roma-76" transform="translate(474.813459 0) scale(0.996264)"/>
     <use xlink:href="#URWPalladioL-Roma-65" transform="translate(531.101372 0) scale(0.996264)"/>
     <use xlink:href="#URWPalladioL-Roma-72" transform="translate(578.821667 0) scale(0.996264)"/>
     <use xlink:href="#URWPalladioL-Roma-67" transform="translate(616.380985 0) scale(0.996264)"/>
     <use xlink:href="#URWPalladioL-Roma-65" transform="translate(671.772662 0) scale(0.996264)"/>
     <use xlink:href="#URWPalladioL-Roma-6e" transform="translate(719.492957 0) scale(0.996264)"/>
     <use xlink:href="#URWPalladioL-Roma-63" transform="translate(777.475017 0) scale(0.996264)"/>
     <use xlink:href="#URWPalladioL-Roma-65" transform="translate(821.708586 0) scale(0.996264)"/>
     <use xlink:href="#URWPalladioL-Roma-6f" transform="translate(894.335481 0) scale(0.996264)"/>
     <use xlink:href="#URWPalladioL-Roma-66" transform="translate(948.731062 0) scale(0.996264)"/>
     <use xlink:href="#URWPalladioL-Roma-74" transform="translate(1006.812892 0) scale(0.996264)"/>
     <use xlink:href="#URWPalladioL-Roma-68" transform="translate(1039.289979 0) scale(0.996264)"/>
     <use xlink:href="#URWPalladioL-Roma-65" transform="translate(1097.27204 0) scale(0.996264)"/>
     <use xlink:href="#URWPalladioL-Roma-41" transform="translate(1169.898936 0) scale(0.996264)"/>
     <use xlink:href="#URWPalladioL-Roma-72" transform="translate(1247.407306 0) scale(0.996264)"/>
     <use xlink:href="#URWPalladioL-Roma-74" transform="translate(1286.759202 0) scale(0.996264)"/>
     <use xlink:href="#URWPalladioL-Roma-69" transform="translate(1319.23629 0) scale(0.996264)"/>
     <use xlink:href="#URWPalladioL-Roma-2" transform="translate(1348.226651 0) scale(0.996264)"/>
     <use xlink:href="#URWPalladioL-Roma-63" transform="translate(1408.499909 0) scale(0.996264)"/>
     <use xlink:href="#URWPalladioL-Roma-69" transform="translate(1452.733478 0) scale(0.996264)"/>
     <use xlink:href="#URWPalladioL-Roma-61" transform="translate(1481.72384 0) scale(0.996264)"/>
     <use xlink:href="#URWPalladioL-Roma-6c" transform="translate(1531.53704 0) scale(0.996264)"/>
     <use xlink:href="#URWPalladioL-Roma-4e" transform="translate(1585.434002 0) scale(0.996264)"/>
     <use xlink:href="#URWPalladioL-Roma-65" transform="translate(1668.222909 0) scale(0.996264)"/>
     <use xlink:href="#URWPalladioL-Roma-75" transform="translate(1715.943204 0) scale(0.996264)"/>
     <use xlink:href="#URWPalladioL-Roma-72" transform="translate(1776.016938 0) scale(0.996264)"/>
     <use xlink:href="#URWPalladioL-Roma-61" transform="translate(1815.368835 0) scale(0.996264)"/>
     <use xlink:href="#URWPalladioL-Roma-6c" transform="translate(1865.182035 0) scale(0.996264)"/>
     <use xlink:href="#URWPalladioL-Roma-4e" transform="translate(1919.078997 0) scale(0.996264)"/>
     <use xlink:href="#URWPalladioL-Roma-65" transform="translate(2001.867904 0) scale(0.996264)"/>
     <use xlink:href="#URWPalladioL-Roma-74" transform="translate(2049.588199 0) scale(0.996264)"/>
     <use xlink:href="#URWPalladioL-Roma-77" transform="translate(2082.065287 0) scale(0.996264)"/>
     <use xlink:href="#URWPalladioL-Roma-6f" transform="translate(2165.15338 0) scale(0.996264)"/>
     <use xlink:href="#URWPalladioL-Roma-72" transform="translate(2219.54896 0) scale(0.996264)"/>
     <use xlink:href="#URWPalladioL-Roma-6b" transform="translate(2258.900856 0) scale(0.996264)"/>
     <use xlink:href="#URWPalladioL-Roma-6d" transform="translate(2339.199134 0) scale(0.996264)"/>
     <use xlink:href="#URWPalladioL-Roma-6f" transform="translate(2427.168808 0) scale(0.996264)"/>
     <use xlink:href="#URWPalladioL-Roma-64" transform="translate(2481.564388 0) scale(0.996264)"/>
     <use xlink:href="#URWPalladioL-Roma-65" transform="translate(2542.436019 0) scale(0.996264)"/>
     <use xlink:href="#URWPalladioL-Roma-6c" transform="translate(2590.156314 0) scale(0.996264)"/>
     <use xlink:href="#URWPalladioL-Roma-73" transform="translate(2619.146675 0) scale(0.996264)"/>
    </g>
   </g>
   <g id="legend_1">
    <g id="patch_7">
     <path d="M 610.901224 131.406157 
L 717.875895 131.406157 
Q 721.075895 131.406157 721.075895 128.206157 
L 721.075895 34.205183 
Q 721.075895 31.005183 717.875895 31.005183 
L 610.901224 31.005183 
Q 607.701224 31.005183 607.701224 34.205183 
L 607.701224 128.206157 
Q 607.701224 131.406157 610.901224 131.406157 
z
" style="fill: #4c4c4c; opacity: 0.5; stroke: #4c4c4c; stroke-linejoin: miter"/>
    </g>
    <g id="patch_8">
     <path d="M 608.901224 129.406157 
L 715.875895 129.406157 
Q 719.075895 129.406157 719.075895 126.206157 
L 719.075895 32.205183 
Q 719.075895 29.005183 715.875895 29.005183 
L 608.901224 29.005183 
Q 605.701224 29.005183 605.701224 32.205183 
L 605.701224 126.206157 
Q 605.701224 129.406157 608.901224 129.406157 
z
" style="fill: #ffffff; opacity: 0.8; stroke: #cccccc; stroke-linejoin: miter"/>
    </g>
    <g id="line2d_121">
     <path d="M 612.101224 41.210366 
L 628.101224 41.210366 
L 644.101224 41.210366 
" style="fill: none; stroke: #bb0000; stroke-width: 3; stroke-linecap: square"/>
    </g>
    <g id="text_16">
     <!-- 3-15-7-1 -->
     <g transform="translate(656.901224 46.810366) scale(0.16 -0.16)">
      <defs>
       <path id="URWPalladioL-Roma-2d" d="M 1805 1395 
L 1997 1823 
L 1965 1856 
L 282 1856 
L 109 1427 
L 141 1395 
L 1805 1395 
z
" transform="scale(0.015625)"/>
       <path id="URWPalladioL-Roma-37" d="M 358 83 
L 416 0 
C 666 0 666 0 710 0 
C 755 19 755 19 1005 0 
C 1274 700 1587 1369 2010 2141 
L 3181 4255 
L 3181 4448 
C 2490 4422 2266 4416 1747 4416 
C 1280 4416 966 4422 346 4448 
L 282 4416 
C 301 3807 301 3807 301 3743 
C 301 3672 301 3672 282 3087 
L 474 3087 
L 518 3447 
C 570 3846 614 3897 909 3897 
L 2618 3897 
C 2362 3370 2163 2996 1920 2604 
L 358 83 
z
" transform="scale(0.015625)"/>
      </defs>
      <use xlink:href="#URWPalladioL-Roma-33" transform="scale(0.996264)"/>
      <use xlink:href="#URWPalladioL-Roma-2d" transform="translate(49.8132 0) scale(0.996264)"/>
      <use xlink:href="#URWPalladioL-Roma-31" transform="translate(82.98843 0) scale(0.996264)"/>
      <use xlink:href="#URWPalladioL-Roma-35" transform="translate(132.801631 0) scale(0.996264)"/>
      <use xlink:href="#URWPalladioL-Roma-2d" transform="translate(182.614831 0) scale(0.996264)"/>
      <use xlink:href="#URWPalladioL-Roma-37" transform="translate(215.790061 0) scale(0.996264)"/>
      <use xlink:href="#URWPalladioL-Roma-2d" transform="translate(265.603261 0) scale(0.996264)"/>
      <use xlink:href="#URWPalladioL-Roma-31" transform="translate(298.778491 0) scale(0.996264)"/>
     </g>
    </g>
    <g id="line2d_122">
     <path d="M 612.101224 65.110609 
L 628.101224 65.110609 
L 644.101224 65.110609 
" style="fill: none; stroke: #00bb00; stroke-width: 3; stroke-linecap: square"/>
    </g>
    <g id="text_17">
     <!-- 3-9-7-1 -->
     <g transform="translate(656.901224 70.710609) scale(0.16 -0.16)">
      <defs>
       <path id="URWPalladioL-Roma-39" d="M 614 -128 
C 1325 103 1632 252 1978 550 
C 2598 1087 2925 1830 2925 2684 
C 2925 3759 2406 4416 1562 4416 
C 742 4416 128 3778 128 2925 
C 128 2194 608 1657 1274 1657 
C 1491 1657 1741 1727 1856 1823 
L 2304 2194 
C 2253 1113 1555 317 397 32 
L 397 -20 
L 614 -128 
z
M 1536 4204 
C 1824 4204 2035 4083 2176 3829 
C 2291 3625 2368 3314 2368 3027 
C 2368 2442 2029 2048 1536 2048 
C 1024 2048 678 2499 678 3161 
C 678 3803 1011 4204 1536 4204 
z
" transform="scale(0.015625)"/>
      </defs>
      <use xlink:href="#URWPalladioL-Roma-33" transform="scale(0.996264)"/>
      <use xlink:href="#URWPalladioL-Roma-2d" transform="translate(49.8132 0) scale(0.996264)"/>
      <use xlink:href="#URWPalladioL-Roma-39" transform="translate(82.98843 0) scale(0.996264)"/>
      <use xlink:href="#URWPalladioL-Roma-2d" transform="translate(132.801631 0) scale(0.996264)"/>
      <use xlink:href="#URWPalladioL-Roma-37" transform="translate(165.97686 0) scale(0.996264)"/>
      <use xlink:href="#URWPalladioL-Roma-2d" transform="translate(215.790061 0) scale(0.996264)"/>
      <use xlink:href="#URWPalladioL-Roma-31" transform="translate(248.965291 0) scale(0.996264)"/>
     </g>
    </g>
    <g id="line2d_123">
     <path d="M 612.101224 89.010853 
L 628.101224 89.010853 
L 644.101224 89.010853 
" style="fill: none; stroke: #0000bb; stroke-width: 3; stroke-linecap: square"/>
    </g>
    <g id="text_18">
     <!-- 3-9-4-1 -->
     <g transform="translate(656.901224 94.610853) scale(0.16 -0.16)">
      <use xlink:href="#URWPalladioL-Roma-33" transform="scale(0.996264)"/>
      <use xlink:href="#URWPalladioL-Roma-2d" transform="translate(49.8132 0) scale(0.996264)"/>
      <use xlink:href="#URWPalladioL-Roma-39" transform="translate(82.98843 0) scale(0.996264)"/>
      <use xlink:href="#URWPalladioL-Roma-2d" transform="translate(132.801631 0) scale(0.996264)"/>
      <use xlink:href="#URWPalladioL-Roma-34" transform="translate(165.97686 0) scale(0.996264)"/>
      <use xlink:href="#URWPalladioL-Roma-2d" transform="translate(215.790061 0) scale(0.996264)"/>
      <use xlink:href="#URWPalladioL-Roma-31" transform="translate(248.965291 0) scale(0.996264)"/>
     </g>
    </g>
    <g id="line2d_124">
     <path d="M 612.101224 112.911096 
L 628.101224 112.911096 
L 644.101224 112.911096 
" style="fill: none; stroke: #bbbb00; stroke-width: 3; stroke-linecap: square"/>
    </g>
    <g id="text_19">
     <!-- 3-7-4-1 -->
     <g transform="translate(656.901224 118.511096) scale(0.16 -0.16)">
      <use xlink:href="#URWPalladioL-Roma-33" transform="scale(0.996264)"/>
      <use xlink:href="#URWPalladioL-Roma-2d" transform="translate(49.8132 0) scale(0.996264)"/>
      <use xlink:href="#URWPalladioL-Roma-37" transform="translate(82.98843 0) scale(0.996264)"/>
      <use xlink:href="#URWPalladioL-Roma-2d" transform="translate(132.801631 0) scale(0.996264)"/>
      <use xlink:href="#URWPalladioL-Roma-34" transform="translate(165.97686 0) scale(0.996264)"/>
      <use xlink:href="#URWPalladioL-Roma-2d" transform="translate(215.790061 0) scale(0.996264)"/>
      <use xlink:href="#URWPalladioL-Roma-31" transform="translate(248.965291 0) scale(0.996264)"/>
     </g>
    </g>
   </g>
  </g>
 </g>
 <defs>
  <clipPath id="p285e1ddec9">
   <rect x="57.475895" y="21.005183" width="669.6" height="498.96"/>
  </clipPath>
 </defs>
</svg>
